<svg width="54" height="54" viewBox="0 0 54 54" fill="none" xmlns="http://www.w3.org/2000/svg">
<path d="M51.395 28.7436C50.9573 28.7436 50.6024 29.0985 50.6024 29.5362V50.9548C50.6024 51.7599 49.9474 52.4147 49.1424 52.4147H30.4776C29.6725 52.4147 29.0177 51.7598 29.0177 50.9548V48.8483C29.0177 48.4106 28.6628 48.0557 28.2251 48.0557C27.7874 48.0557 27.4325 48.4106 27.4325 48.8483V50.9548C27.4325 51.4836 27.5681 51.9811 27.8062 52.4147H3.66153C3.51588 52.4147 3.39733 52.2962 3.39733 52.1505V33.0293C3.39733 32.5916 3.04243 32.2367 2.60473 32.2367C2.16704 32.2367 1.81213 32.5915 1.81213 33.0293V52.1507C1.81213 53.1703 2.64175 53.9999 3.66142 53.9999H49.1423C50.8214 53.9999 52.1874 52.6339 52.1874 50.9548V29.5362C52.1875 29.0985 51.8327 28.7436 51.395 28.7436Z" fill="#902768"/>
<path d="M49.1433 17.0208H41.4817V10.6137C41.4821 10.4055 41.3966 10.2001 41.2495 10.0532L31.4285 0.232244C31.2816 0.0851148 31.0762 -0.000420322 30.868 1.55327e-06H3.66242C2.64275 1.55327e-06 1.81313 0.829619 1.81313 1.84929V29.859C1.81313 30.2967 2.16804 30.6516 2.60573 30.6516C3.04343 30.6516 3.39833 30.2967 3.39833 29.859V1.84929C3.39833 1.70364 3.51688 1.58509 3.66253 1.58509H30.0755V8.50015C30.0755 10.1025 31.3792 11.4062 32.9816 11.4062H39.8966V17.0207H30.4786C28.7995 17.0207 27.4335 18.3867 27.4335 20.0657V20.1898H14.8743C14.4366 20.1898 14.0817 20.5446 14.0817 20.9824C14.0817 21.4201 14.4366 21.775 14.8743 21.775H27.4335V27.1585H14.8743C14.4366 27.1585 14.0817 27.5134 14.0817 27.9511C14.0817 28.3888 14.4366 28.7437 14.8743 28.7437H27.4335V34.1273H14.8743C14.4366 34.1273 14.0817 34.4822 14.0817 34.9199C14.0817 35.3576 14.4366 35.7125 14.8743 35.7125H27.4335V41.0961H14.8743C14.4366 41.0961 14.0817 41.4509 14.0817 41.8887C14.0817 42.3265 14.4366 42.6813 14.8743 42.6813H27.4335V45.6783C27.4335 46.116 27.7883 46.4709 28.2261 46.4709C28.6639 46.4709 29.0187 46.116 29.0187 45.6783V20.0657C29.0187 19.2607 29.6737 18.6058 30.4786 18.6058H49.1434C49.9484 18.6058 50.6034 19.2608 50.6034 20.0657V26.3659C50.6034 26.8036 50.9583 27.1585 51.396 27.1585C51.8337 27.1585 52.1886 26.8037 52.1886 26.3659V20.0657C52.1884 18.3868 50.8224 17.0208 49.1433 17.0208ZM31.6606 8.50015V2.70601L38.7757 9.82115H32.9815C32.2531 9.82115 31.6606 9.22862 31.6606 8.50015Z" fill="#902768"/>
<path d="M48.3079 22.524C48.3079 21.5044 47.4783 20.6747 46.4587 20.6747H33.2991C32.2794 20.6747 31.4498 21.5044 31.4498 22.524V26.9991C31.4498 28.0188 32.2794 28.8484 33.2991 28.8484H46.4587C47.4783 28.8484 48.3079 28.0188 48.3079 26.9991V22.524ZM46.7229 26.999C46.7229 27.1446 46.6043 27.2632 46.4587 27.2632H33.2991C33.1535 27.2632 33.0349 27.1446 33.0349 26.999V22.5239C33.0349 22.3783 33.1535 22.2597 33.2991 22.2597H46.4587C46.6043 22.2597 46.7229 22.3783 46.7229 22.5239V26.999Z" fill="#902768"/>
<path d="M31.4498 35.3572C31.4498 36.3329 32.2437 37.1268 33.2194 37.1268H34.7285C35.7042 37.1268 36.4981 36.3329 36.4981 35.3572V33.8481C36.4981 32.8723 35.7042 32.0785 34.7285 32.0785H33.2194C32.2437 32.0785 31.4498 32.8724 31.4498 33.8481V35.3572ZM33.0349 33.8482C33.0349 33.7465 33.1177 33.6637 33.2194 33.6637H34.7285C34.8302 33.6637 34.913 33.7465 34.913 33.8482V35.3573C34.913 35.459 34.8302 35.5418 34.7285 35.5418H33.2194C33.1177 35.5418 33.0349 35.459 33.0349 35.3573V33.8482Z" fill="#902768"/>
<path d="M42.4032 33.8482C42.4032 32.8724 41.6093 32.0787 40.6336 32.0787H39.1245C38.1488 32.0787 37.3549 32.8725 37.3549 33.8482V35.3574C37.3549 36.3331 38.1488 37.1269 39.1245 37.1269H40.6336C41.6093 37.1269 42.4032 36.3331 42.4032 35.3574V33.8482ZM40.818 35.3573C40.818 35.459 40.7352 35.5418 40.6335 35.5418H39.1245C39.0228 35.5418 38.94 35.459 38.94 35.3573V33.8481C38.94 33.7465 39.0228 33.6637 39.1245 33.6637H40.6336C40.7353 33.6637 40.8181 33.7465 40.8181 33.8481L40.818 35.3573Z" fill="#902768"/>
<path d="M48.3083 33.8482C48.3083 32.8724 47.5144 32.0787 46.5387 32.0787H45.0296C44.0539 32.0787 43.26 32.8725 43.26 33.8482V35.3574C43.26 36.3331 44.0539 37.1269 45.0296 37.1269H46.5387C47.5144 37.1269 48.3083 36.3331 48.3083 35.3574V33.8482ZM46.7232 35.3573C46.7232 35.459 46.6404 35.5418 46.5387 35.5418H45.0296C44.9279 35.5418 44.8451 35.459 44.8451 35.3573V33.8481C44.8451 33.7465 44.9279 33.6637 45.0296 33.6637H46.5387C46.6404 33.6637 46.7232 33.7465 46.7232 33.8481V35.3573Z" fill="#902768"/>
<path d="M31.4498 41.8198C31.4498 42.7955 32.2437 43.5894 33.2194 43.5894H34.7285C35.7042 43.5894 36.4981 42.7955 36.4981 41.8198V40.3107C36.4981 39.335 35.7042 38.5411 34.7285 38.5411H33.2194C32.2437 38.5411 31.4498 39.3349 31.4498 40.3107V41.8198ZM33.0349 40.3107C33.0349 40.209 33.1177 40.1262 33.2194 40.1262H34.7285C34.8302 40.1262 34.913 40.2089 34.913 40.3107V41.8198C34.913 41.9215 34.8302 42.0043 34.7285 42.0043H33.2194C33.1177 42.0043 33.0349 41.9215 33.0349 41.8198V40.3107Z" fill="#902768"/>
<path d="M42.4032 40.3107C42.4032 39.335 41.6093 38.5411 40.6336 38.5411H39.1245C38.1488 38.5411 37.3549 39.3349 37.3549 40.3107V41.8198C37.3549 42.7955 38.1488 43.5894 39.1245 43.5894H40.6336C41.6093 43.5894 42.4032 42.7955 42.4032 41.8198V40.3107ZM40.818 41.8198C40.818 41.9215 40.7352 42.0043 40.6335 42.0043H39.1245C39.0228 42.0043 38.94 41.9215 38.94 41.8198V40.3107C38.94 40.209 39.0228 40.1262 39.1245 40.1262H40.6336C40.7353 40.1262 40.8181 40.2089 40.8181 40.3107L40.818 41.8198Z" fill="#902768"/>
<path d="M31.4498 48.2815C31.4498 49.2572 32.2437 50.051 33.2194 50.051H34.7285C35.7042 50.051 36.4981 49.2572 36.4981 48.2815V46.7723C36.4981 45.7966 35.7042 45.0028 34.7285 45.0028H33.2194C32.2437 45.0028 31.4498 45.7965 31.4498 46.7723V48.2815ZM33.0349 46.7724C33.0349 46.6707 33.1177 46.588 33.2194 46.588H34.7285C34.8302 46.588 34.913 46.6706 34.913 46.7724V48.2816C34.913 48.3832 34.8302 48.466 34.7285 48.466H33.2194C33.1177 48.466 33.0349 48.3832 33.0349 48.2816V46.7724Z" fill="#902768"/>
<path d="M40.6335 45.0029H39.1245C38.1488 45.0029 37.3549 45.7967 37.3549 46.7725V48.2816C37.3549 49.2573 38.1488 50.0512 39.1245 50.0512H40.6336C41.6093 50.0512 42.4032 49.2573 42.4032 48.2816V46.7725C42.4032 45.7967 41.6093 45.0029 40.6335 45.0029ZM40.818 48.2815C40.818 48.3832 40.7352 48.466 40.6335 48.466H39.1245C39.0228 48.466 38.94 48.3832 38.94 48.2815V46.7724C38.94 46.6707 39.0228 46.5879 39.1245 46.5879H40.6336C40.7353 46.5879 40.8181 46.6706 40.8181 46.7724L40.818 48.2815Z" fill="#902768"/>
<path d="M46.389 38.5411H45.1792C44.1209 38.5411 43.26 39.4021 43.26 40.4603V48.1323C43.26 49.1906 44.1209 50.0516 45.1792 50.0516H46.389C47.4473 50.0516 48.3083 49.1906 48.3083 48.1323V40.4603C48.3083 39.4021 47.4473 38.5411 46.389 38.5411ZM46.7232 48.1323C46.7232 48.3166 46.5733 48.4665 46.389 48.4665H45.1792C44.995 48.4665 44.8451 48.3166 44.8451 48.1323V40.4603C44.8451 40.2761 44.995 40.1263 45.1792 40.1263H46.389C46.5733 40.1263 46.7232 40.2762 46.7232 40.4603V48.1323Z" fill="#902768"/>
<path d="M8.14308 14.8059H11.3068C11.7445 14.8059 12.0994 14.4511 12.0994 14.0133C12.0994 13.5756 11.7446 13.2207 11.3068 13.2207H8.14308C7.70538 13.2207 7.35048 13.5756 7.35048 14.0133C7.35048 14.451 7.70538 14.8059 8.14308 14.8059Z" fill="#902768"/>
<path d="M14.8731 14.8059H30.1271C30.5648 14.8059 30.9197 14.4511 30.9197 14.0133C30.9197 13.5756 30.5648 13.2207 30.1271 13.2207H14.8731C14.4354 13.2207 14.0805 13.5756 14.0805 14.0133C14.0806 14.451 14.4354 14.8059 14.8731 14.8059Z" fill="#902768"/>
<path d="M8.14308 21.775H11.3068C11.7445 21.775 12.0994 21.4201 12.0994 20.9824C12.0994 20.5447 11.7446 20.1898 11.3068 20.1898H8.14308C7.70538 20.1898 7.35048 20.5446 7.35048 20.9824C7.35048 21.4202 7.70538 21.775 8.14308 21.775Z" fill="#902768"/>
<path d="M8.14308 28.7437H11.3068C11.7445 28.7437 12.0994 28.3888 12.0994 27.9511C12.0994 27.5134 11.7446 27.1585 11.3068 27.1585H8.14308C7.70538 27.1585 7.35048 27.5134 7.35048 27.9511C7.35048 28.3888 7.70538 28.7437 8.14308 28.7437Z" fill="#902768"/>
<path d="M8.14308 35.7122H11.3068C11.7445 35.7122 12.0994 35.3573 12.0994 34.9196C12.0994 34.4819 11.7446 34.127 11.3068 34.127H8.14308C7.70538 34.127 7.35048 34.4819 7.35048 34.9196C7.35048 35.3574 7.70538 35.7122 8.14308 35.7122Z" fill="#902768"/>
<path d="M8.14308 42.6809H11.3068C11.7445 42.6809 12.0994 42.3261 12.0994 41.8883C12.0994 41.4505 11.7446 41.0957 11.3068 41.0957H8.14308C7.70538 41.0957 7.35048 41.4505 7.35048 41.8883C7.35048 42.3261 7.70538 42.6809 8.14308 42.6809Z" fill="#902768"/>
</svg>
