<svg width="54" height="54" viewBox="0 0 54 54" fill="none" xmlns="http://www.w3.org/2000/svg">
<path d="M47.3876 36.8463C48.8639 33.7901 49.6452 30.4125 49.6452 27C49.6452 23.5875 48.8639 20.2099 47.3876 17.1537C51.1781 16.2105 54 12.7875 54 8.70968C54 3.90716 50.0928 0 45.2903 0C41.2064 0 37.7791 2.82977 36.8428 6.62806C36.1643 6.30058 35.4702 6.00358 34.7551 5.74316C34.2647 2.49794 31.4646 0 28.0852 0H25.9148C22.5354 0 19.7353 2.49794 19.2458 5.74316C18.5307 6.00358 17.8365 6.30145 17.1581 6.62806C16.2209 2.82977 12.7936 0 8.70968 0C3.90716 0 0 3.90716 0 8.70968C0 12.7875 2.82194 16.2105 6.61239 17.1537C5.1361 20.2099 4.35484 23.5875 4.35484 27C4.35484 30.4125 5.1361 33.7901 6.61239 36.8463C2.82194 37.7895 0 41.2125 0 45.2903C0 50.0928 3.90716 54 8.70968 54C12.7893 54 16.2131 51.1763 17.1546 47.3833C17.523 47.5601 17.9036 47.7264 18.2903 47.8875V54H35.7097V47.8875C36.0964 47.7264 36.477 47.5609 36.8454 47.3833C37.7869 51.1763 41.2107 54 45.2903 54C50.0928 54 54 50.0928 54 45.2903C54 41.2125 51.1781 37.7895 47.3876 36.8463ZM45.2903 1.74194C49.1322 1.74194 52.2581 4.86784 52.2581 8.70968C52.2581 12.5515 49.1322 15.6774 45.2903 15.6774C41.4485 15.6774 38.3226 12.5515 38.3226 8.70968C38.3226 4.86784 41.4485 1.74194 45.2903 1.74194ZM20.9032 6.75348C20.9032 3.9899 23.1512 1.74194 25.9148 1.74194H28.0852C30.8488 1.74194 33.0968 3.9899 33.0968 6.75348V7.09055C32.6238 6.69165 32.1988 6.22829 31.8408 5.6909C31.2834 4.8539 30.3515 4.35484 29.3455 4.35484H24.6536C23.6485 4.35484 22.7157 4.8539 22.1295 5.73532C21.789 6.24658 21.3709 6.69948 20.9032 7.09229V6.75348ZM20.9032 9.207C21.9684 8.57903 22.896 7.72635 23.6102 6.65506C23.8427 6.30581 24.2329 6.09677 24.6545 6.09677H29.3464C29.7671 6.09677 30.1581 6.30581 30.4212 6.70123C31.1084 7.73158 32.0325 8.5799 33.0968 9.207V9.58065C33.0968 12.9417 30.3611 15.6774 27 15.6774C23.6389 15.6774 20.9032 12.9417 20.9032 9.58065V9.207ZM29.9134 17.4194C29.2532 18.0186 28.1157 18.6648 27 19.1021C25.8843 18.6657 24.7459 18.0186 24.0866 17.4194H29.9134ZM1.74194 8.70968C1.74194 4.86784 4.86784 1.74194 8.70968 1.74194C12.5515 1.74194 15.6774 4.86784 15.6774 8.70968C15.6774 12.5515 12.5515 15.6774 8.70968 15.6774C4.86784 15.6774 1.74194 12.5515 1.74194 8.70968ZM8.70968 52.2581C4.86784 52.2581 1.74194 49.1322 1.74194 45.2903C1.74194 41.4485 4.86784 38.3226 8.70968 38.3226C12.5515 38.3226 15.6774 41.4485 15.6774 45.2903C15.6774 49.1322 12.5515 52.2581 8.70968 52.2581ZM18.2903 45.9958C17.9855 45.8573 17.6955 45.7093 17.4054 45.5595C17.408 45.4697 17.4194 45.3809 17.4194 45.2903C17.4194 40.4878 13.5122 36.5806 8.70968 36.5806C8.61823 36.5806 8.52939 36.592 8.43793 36.5946C6.91113 33.6429 6.09677 30.3402 6.09677 27C6.09677 23.6598 6.91113 20.3571 8.43793 17.4054C8.52939 17.408 8.61823 17.4194 8.70968 17.4194C13.5122 17.4194 17.4194 13.5122 17.4194 8.70968C17.4194 8.62084 17.4089 8.53461 17.4063 8.44577C17.975 8.15139 18.5603 7.88487 19.1613 7.64187V9.58065C19.1613 12.042 20.304 14.2395 22.0834 15.6774H20.9032C16.5806 15.6774 13.0645 19.1935 13.0645 23.5161V32.2258C13.0645 35.1078 15.4083 37.4516 18.2903 37.4516V45.9958ZM18.2903 35.7097C16.369 35.7097 14.8065 34.1472 14.8065 32.2258V25.2581H18.2903V35.7097ZM26.129 52.2581H20.0323V50.5161H26.129V52.2581ZM33.9677 52.2581H27.871V50.5161H33.9677V52.2581ZM33.9677 48.7742H27.871V39.1936H26.129V48.7742H20.0323V39.9765C22.0172 39.5715 23.5161 37.8131 23.5161 35.7097H30.4839C30.4839 37.8122 31.9828 39.5715 33.9677 39.9765V48.7742ZM20.0323 38.1623V35.7097H21.7742C21.7742 36.8437 21.0435 37.8017 20.0323 38.1623ZM33.9677 38.1623C32.9565 37.8017 32.2258 36.8437 32.2258 35.7097H33.9677V38.1623ZM33.9677 21.7742V33.9677H20.0323V21.7742H18.2903V23.5161H14.8065C14.8065 20.1551 17.5422 17.4194 20.9032 17.4194H21.9545C22.7558 19.3433 25.9853 20.594 26.7065 20.8518L27 20.9581L27.2935 20.8527C28.0138 20.5949 31.2442 19.3442 32.0455 17.4202H33.0968C36.4578 17.4202 39.1936 20.1559 39.1936 23.517H35.7097V23.5161V21.7742H33.9677ZM39.1936 25.2581V32.2258C39.1936 34.1472 37.631 35.7097 35.7097 35.7097V25.2581H39.1936ZM36.5946 45.5595C36.3045 45.7093 36.0145 45.8573 35.7097 45.9958V37.4516C38.5917 37.4516 40.9355 35.1078 40.9355 32.2258V23.5161C40.9355 19.1935 37.4194 15.6774 33.0968 15.6774H31.9166C33.696 14.2395 34.8387 12.042 34.8387 9.58065V7.64187C35.4397 7.88487 36.025 8.15226 36.5937 8.44577C36.5911 8.53461 36.5806 8.62084 36.5806 8.70968C36.5806 13.5122 40.4878 17.4194 45.2903 17.4194C45.3818 17.4194 45.4706 17.408 45.5621 17.4054C47.0889 20.3571 47.9032 23.6598 47.9032 27C47.9032 30.3402 47.0889 33.6429 45.5621 36.5946C45.4706 36.592 45.3818 36.5806 45.2903 36.5806C40.4878 36.5806 36.5806 40.4878 36.5806 45.2903C36.5806 45.3809 36.592 45.4697 36.5946 45.5595ZM45.2903 52.2581C41.4485 52.2581 38.3226 49.1322 38.3226 45.2903C38.3226 41.4485 41.4485 38.3226 45.2903 38.3226C49.1322 38.3226 52.2581 41.4485 52.2581 45.2903C52.2581 49.1322 49.1322 52.2581 45.2903 52.2581Z" fill="#902768"/>
<path d="M13.0646 4.35461H4.35489V6.09655H13.0646V4.35461Z" fill="#902768"/>
<path d="M13.0646 7.83868H4.35489V9.58062H13.0646V7.83868Z" fill="#902768"/>
<path d="M13.0646 11.3227H11.3227V13.0646H13.0646V11.3227Z" fill="#902768"/>
<path d="M9.5807 11.3227H4.35489V13.0646H9.5807V11.3227Z" fill="#902768"/>
<path d="M49.6453 4.35461H40.9356V6.09655H49.6453V4.35461Z" fill="#902768"/>
<path d="M49.6453 7.83868H40.9356V9.58062H49.6453V7.83868Z" fill="#902768"/>
<path d="M49.6453 11.3227H47.9034V13.0646H49.6453V11.3227Z" fill="#902768"/>
<path d="M46.1614 11.3227H40.9356V13.0646H46.1614V11.3227Z" fill="#902768"/>
<path d="M13.0646 40.9355H4.35489V42.6775H13.0646V40.9355Z" fill="#902768"/>
<path d="M13.0646 44.4196H4.35489V46.1615H13.0646V44.4196Z" fill="#902768"/>
<path d="M13.0646 47.9031H11.3227V49.645H13.0646V47.9031Z" fill="#902768"/>
<path d="M9.5807 47.9031H4.35489V49.645H9.5807V47.9031Z" fill="#902768"/>
<path d="M49.6453 40.9355H40.9356V42.6775H49.6453V40.9355Z" fill="#902768"/>
<path d="M49.6453 44.4196H40.9356V46.1615H49.6453V44.4196Z" fill="#902768"/>
<path d="M49.6453 47.9031H47.9034V49.645H49.6453V47.9031Z" fill="#902768"/>
<path d="M46.1614 47.9031H40.9356V49.645H46.1614V47.9031Z" fill="#902768"/>
</svg>
