<svg width="54" height="54" viewBox="0 0 54 54" fill="none" xmlns="http://www.w3.org/2000/svg">
<path d="M53.1 14.4H47.3796C50.8625 11.5981 51.4145 6.50329 48.6126 3.0204C47.0748 1.10891 44.7532 -0.00190998 42.3 2.51713e-06H34.4088C31.2001 0.00112752 28.2945 1.89619 27 4.8321C25.7055 1.89619 22.7999 0.00112752 19.5912 2.51713e-06H11.7C7.22992 -0.00348498 3.60349 3.61744 3.6 8.0874C3.59809 10.5406 4.70891 12.8622 6.6204 14.4H0.9C0.402975 14.4 0 14.803 0 15.3V24.3C0 24.797 0.402975 25.2 0.9 25.2H2.7V53.1C2.7 53.597 3.10297 54 3.6 54H50.4C50.897 54 51.3 53.597 51.3 53.1V25.2H53.1C53.597 25.2 54 24.797 54 24.3V15.3C54 14.803 53.597 14.4 53.1 14.4ZM40.7043 1.8747C40.7772 1.8639 40.8492 1.8495 40.9221 1.8405C41.15 1.8144 41.3793 1.8009 41.6088 1.8H42.3C45.7777 1.80394 48.5961 4.62229 48.6 8.1C48.5961 11.5777 45.7777 14.3961 42.3 14.4H40.1859C43.6653 11.5962 44.2129 6.50261 41.4091 3.02321C41.0919 2.62946 40.7384 2.26643 40.3533 1.9386C40.4694 1.9143 40.5864 1.8927 40.7043 1.8747ZM38.3688 2.7387C41.3382 4.53589 42.2885 8.40004 40.4912 11.3695C39.35 13.2552 37.3042 14.4052 35.1 14.4H31.9761L35.8371 5.5746C36.3679 4.39054 37.2523 3.39986 38.3688 2.7387ZM31.9977 16.2H38.1438L42.3945 24.7023L45.3438 30.6H42.3C42.0167 30.6 41.75 30.7334 41.58 30.96L39.7908 33.345L35.5113 23.931L31.9977 16.2ZM33.2937 23.4H31.5V19.4544L33.2937 23.4ZM15.6312 2.7387C16.7477 3.39986 17.6321 4.39054 18.1629 5.5746L22.0239 14.4H18.9C15.429 14.4081 12.6088 11.6009 12.6007 8.12993C12.5955 5.92583 13.7455 3.88001 15.6312 2.7387ZM22.0023 16.2L18.4923 23.9274L14.2092 33.345L12.42 30.96C12.25 30.7334 11.9833 30.6 11.7 30.6H8.6562L11.61 24.7023L15.8562 16.2H22.0023ZM5.4 8.1C5.40394 4.62229 8.22229 1.80394 11.7 1.8H12.3912C12.6207 1.8009 12.85 1.8144 13.0779 1.8405C13.1508 1.8495 13.2228 1.8639 13.2957 1.8747C13.4136 1.8927 13.5306 1.9143 13.6467 1.9386C10.2439 4.83491 9.83329 9.9414 12.7295 13.3442C13.0572 13.7293 13.4204 14.0828 13.8141 14.4H11.7C8.22229 14.3961 5.40394 11.5777 5.4 8.1ZM1.8 23.4V16.2H13.8438L10.2438 23.4H1.8ZM22.5 52.2H4.5V25.2H9.3438L6.3945 31.0977C6.17231 31.5423 6.35265 32.0829 6.79725 32.305C6.92235 32.3675 7.06016 32.4 7.2 32.4H11.25L13.68 35.64C13.85 35.8666 14.1167 36 14.4 36C14.4325 36 14.4649 35.9982 14.4972 35.9946C14.8124 35.9596 15.0859 35.7613 15.2172 35.4726L19.89 25.2H22.5V52.2ZM22.5 23.4H20.7063L22.5 19.4544V23.4ZM19.8117 4.8537C19.2877 3.66109 18.4822 2.61326 17.4645 1.8H19.5912C22.0941 1.8 24.3596 3.28163 25.3629 5.5746L26.0172 7.0713L23.4 13.0545L19.8117 4.8537ZM29.7 52.2H24.3V16.2H29.7V52.2ZM24.7761 14.4L28.6371 5.5746C29.6404 3.28163 31.9059 1.8 34.4088 1.8H36.54C35.5223 2.61326 34.7168 3.66109 34.1928 4.8537L30.0114 14.4H24.7761ZM49.5 52.2H31.5V25.2H34.11L38.781 35.4726C38.9123 35.7613 39.1858 35.9596 39.501 35.9946C39.5338 35.9983 39.5669 36.0001 39.6 36C39.8833 36 40.15 35.8666 40.32 35.64L42.75 32.4H46.8C47.297 32.4027 47.7022 32.002 47.7049 31.505C47.7057 31.3637 47.6732 31.2242 47.61 31.0977L44.6562 25.2H49.5V52.2ZM52.2 23.4H43.7562L40.1562 16.2H52.2V23.4Z" fill="#902768"/>
</svg>
