<svg width="54" height="54" viewBox="0 0 54 54" fill="none" xmlns="http://www.w3.org/2000/svg">
  <path fill="#902768" d="M29.64 18.537c-5.38-5.918-14.437-6.277-20.265-.987-.27.27-.628.538-.897.897l-.359.628.449.538.09.09c5.29 5.827 14.346 6.186 20.174.896.27-.269.628-.538.897-.897l.448-.627-.538-.538zm-12.375.538c0-.987.807-1.794 1.794-1.794.986 0 1.793.807 1.793 1.794 0 .986-.807 1.793-1.793 1.793a1.798 1.798 0 01-1.794-1.793zm.628-3.408c-1.883.628-2.87 2.6-2.332 4.484.36 1.076 1.166 1.972 2.332 2.33-2.78-.268-5.47-1.434-7.532-3.406 2.152-1.973 4.752-3.139 7.532-3.408zm2.331 6.815c1.883-.627 2.87-2.6 2.332-4.483-.359-1.076-1.166-1.973-2.332-2.332 2.78.27 5.47 1.435 7.532 3.408-2.152 1.972-4.752 3.138-7.532 3.407z"/>
  <path fill="#902768" d="M19.059 3.832c-8.43 0-15.244 6.814-15.244 15.243 0 8.428 6.815 15.243 15.244 15.243 8.428 0 15.243-6.814 15.243-15.243S27.487 3.832 19.059 3.832zm0 28.693a13.432 13.432 0 01-13.45-13.45c0-7.443 6.007-13.45 13.45-13.45 7.442 0 13.45 6.007 13.45 13.45 0 7.442-6.008 13.45-13.45 13.45zM49.545 38.802V9.212a4.44 4.44 0 00-4.483-4.483H35.2v1.793h9.863c1.524 0 2.69 1.166 2.69 2.69v29.59h1.793zM4.712 36.112v8.966a4.44 4.44 0 004.483 4.484H40.58v-1.793H9.195c-1.524 0-2.69-1.166-2.69-2.69v-8.967H4.712z"/>
  <path fill="#902768" d="M37.889 9.211h8.07v1.794h-8.07V9.21zM39.682 13.695h6.276v1.793h-6.276v-1.793zM39.682 18.178h6.276v1.794h-6.276v-1.794zM39.682 22.662h6.276v1.793h-6.276v-1.793zM39.682 27.145h6.276v1.793h-6.276v-1.793zM40.579 31.628h5.38v1.794h-5.38v-1.793zM8.299 39.698h24.21v1.793H8.299v-1.793zM8.299 43.285h27.796v1.794H8.3v-1.794zM12.782 26.249h12.553v1.793H12.782V26.25zM12.782 10.109h12.553v1.793H12.782v-1.793z"/>
  <path fill="#902768" d="M43.537 37.815c-.538-.538-1.165-.807-1.883-.807h-.627l-6.456-7.263c5.918-8.608 3.855-20.354-4.752-26.362C21.21-2.625 9.374-.383 3.456 8.135-2.46 16.654-.399 28.49 8.21 34.497a18.842 18.842 0 0022.506-.717l6.277 7.084v.717c0 .717.269 1.434.807 1.883l9.325 9.325c1.614 1.614 4.125 1.614 5.739 0 1.614-1.614 1.614-4.124 0-5.739l-9.326-9.235zM2.022 19.075c0-9.415 7.622-17.037 17.037-17.037S36.095 9.66 36.095 19.075 28.474 36.11 19.06 36.11c-9.415 0-17.037-7.621-17.037-17.036zM32.06 32.704c.449-.449.986-.986 1.345-1.434l5.918 6.635-1.434 1.345-5.829-6.546zM49.994 52.25c-.628 0-1.166-.269-1.615-.627l-9.325-9.326a.814.814 0 01-.269-.628v-.717l2.152-2.152h.717c.27 0 .449.09.628.27l9.325 9.324a2.273 2.273 0 010 3.228c-.448.359-1.076.628-1.613.628z"/>
</svg>
