<svg width="54" height="54" fill="none" viewBox="0 0 54 54" xmlns="http://www.w3.org/2000/svg">
  <path d="M50.047 21.977h-.368V11.022L38.675.018H5.236v14.58H0v34.379a5.012 5.012 0 005.006 5.006h43.83A5.17 5.17 0 0054 48.82v-22.89a3.957 3.957 0 00-3.953-3.952zM39.14 2.717l7.84 7.841h-7.84v-7.84zM5.006 52.402a3.43 3.43 0 01-3.425-3.425V16.18h7.856l3.373 3.162H41.3a2.374 2.374 0 012.37 2.371V48.82c0 1.39.554 2.654 1.451 3.583H5.008zm40.246-3.583V21.713a3.957 3.957 0 00-3.953-3.952H13.435l-3.373-3.162H6.816v-13h30.741v10.54h10.54v36.996h-2.83a3.672 3.672 0 01-.015-.316zm7.167 0a3.588 3.588 0 01-3.584 3.583 3.583 3.583 0 01-3.038-1.686h3.882V23.558h.369a2.374 2.374 0 012.371 2.371v22.89z" fill="#902768"/>
  <path d="M11.085 33.921h20.869v1.581h-20.87v-1.58zM11.085 30.653h1.58v1.581h-1.58v-1.58zM14.246 30.653h1.582v1.581h-1.582v-1.58zM17.409 30.653h14.545v1.581H17.409v-1.58zM11.085 37.188h20.869v1.581h-20.87v-1.58zM30.373 40.456h1.58v1.581h-1.58v-1.58zM11.085 40.456H25.63v1.581H11.085v-1.58zM27.21 40.456h1.582v1.581H27.21v-1.58z" fill="#902768"/>
</svg>
