<svg width="54" height="54" viewBox="0 0 54 54" fill="none" xmlns="http://www.w3.org/2000/svg">
<path d="M19.9066 23.3027L18.414 22.9298L18.2191 22.1518C19.051 21.6422 19.6838 20.8575 20.0053 19.9209L20.5057 19.4442C21.3705 18.6199 22.0269 17.5863 22.4041 16.454C22.6547 15.703 22.7812 14.9243 22.7812 14.1345V13.5C22.7812 12.2293 22.3611 10.9713 21.6 9.95709C20.4913 8.47716 18.7245 7.59375 16.875 7.59375H13.5C11.6505 7.59375 9.88369 8.47716 8.775 9.95625C8.01394 10.9713 7.59375 12.2293 7.59375 13.5V14.1345C7.59375 14.9243 7.72031 15.703 7.97006 16.4531C8.34722 17.5854 9.0045 18.619 9.86934 19.4442L10.3688 19.9201C10.6903 20.8575 11.3231 21.6422 12.1551 22.151L11.9602 22.9289L10.4684 23.3018C9.41034 23.5659 8.44256 24.1135 7.67053 24.8856C6.53316 26.0246 5.90625 27.5366 5.90625 29.1457V34.5938H9.28125H10.9688H24.4688V29.1457C24.4688 27.5366 23.8418 26.0246 22.7045 24.8864C21.9324 24.1144 20.9647 23.5668 19.9066 23.3027ZM20.25 10.9696C20.7942 11.6935 21.0938 12.593 21.0938 13.5V14.1345C21.0938 14.742 20.9959 15.3428 20.8043 15.919C20.6668 16.3316 20.4778 16.7248 20.25 17.0944V15.7958C20.25 15.0685 19.7859 14.4248 19.0966 14.1961C17.9482 13.813 16.8893 13.1591 16.0312 12.3061V9.28125H16.875C18.1963 9.28125 19.4577 9.91238 20.25 10.9696ZM9.57066 15.919C9.37913 15.3428 9.28125 14.742 9.28125 14.1345V13.5C9.28125 12.593 9.58078 11.6935 10.125 10.9688C10.9164 9.91237 12.1787 9.28125 13.5 9.28125H14.3438V12.3052C13.4857 13.1583 12.4276 13.8122 11.2793 14.1944C10.5891 14.4247 10.125 15.0677 10.125 15.7958V17.0944C9.89719 16.7248 9.70819 16.3316 9.57066 15.919ZM11.8125 15.7958C13.0553 15.3824 14.213 14.7066 15.1875 13.8307C16.162 14.7066 17.3188 15.3816 18.5625 15.7958V18.5625C18.5625 19.9581 17.4268 21.0938 16.0312 21.0938H14.3438C12.9482 21.0938 11.8125 19.9581 11.8125 18.5625V15.7958ZM14.3438 22.7812H16.0312C16.2338 22.7812 16.4278 22.7492 16.6227 22.7213L16.8193 23.5069C16.4843 24.0983 15.8735 24.4688 15.1875 24.4688C14.5015 24.4688 13.8907 24.0983 13.5557 23.5069L13.7523 22.7213C13.9472 22.7492 14.1412 22.7812 14.3438 22.7812ZM22.7812 32.9062H21.0938V29.5312H19.4062V32.9062H10.9688V29.5312H9.28125V32.9062H7.59375V29.1457C7.59375 27.9872 8.04516 26.8988 8.86359 26.0795C9.41963 25.5243 10.1157 25.1294 10.8776 24.9387L12.2377 24.5987C12.8976 25.5698 13.9894 26.1562 15.1875 26.1562C16.3856 26.1562 17.4774 25.5698 18.1372 24.5995L19.4974 24.9396C20.2584 25.1303 20.9554 25.5243 21.5114 26.0803C22.3298 26.8988 22.7812 27.9872 22.7812 29.1457V32.9062Z" fill="#902768"/>
<path d="M37.9688 43.0312H49.7812V37.9688H37.9688V43.0312ZM43.0312 41.3438V39.6562H44.7188V41.3438H43.0312ZM48.0938 41.3438H46.4062V39.6562H48.0938V41.3438ZM39.6562 39.6562H41.3438V41.3438H39.6562V39.6562Z" fill="#902768"/>
<path d="M50.625 4.21875H29.5312V2.53125C29.5312 1.60059 28.7744 0.84375 27.8438 0.84375H2.53125C1.60059 0.84375 0.84375 1.60059 0.84375 2.53125V39.6562C0.84375 40.5869 1.60059 41.3438 2.53125 41.3438H4.21875V43.875C4.21875 45.2706 5.35444 46.4062 6.75 46.4062H20.0129L18.7473 51.4688H16.0312V53.1562H41.3438V51.4688H38.6277L37.3621 46.4062H50.625C52.0206 46.4062 53.1562 45.2706 53.1562 43.875V6.75C53.1562 5.35444 52.0206 4.21875 50.625 4.21875ZM50.625 5.90625C51.0899 5.90625 51.4688 6.28425 51.4688 6.75V34.5938H29.5312V5.90625H50.625ZM2.53125 2.53125H27.8438L27.8446 39.6562H2.53125V2.53125ZM36.8879 51.4688H20.4871L21.7527 46.4062H35.6223L36.8879 51.4688ZM50.625 44.7188H6.75C6.28509 44.7188 5.90625 44.3408 5.90625 43.875V41.3438H27.8438C28.7744 41.3438 29.5312 40.5869 29.5312 39.6562V36.2812H51.4688V43.875C51.4688 44.3408 51.0899 44.7188 50.625 44.7188Z" fill="#902768"/>
<path d="M49.7812 7.59375H31.2188V12.6562H49.7812V7.59375ZM48.0938 10.9688H32.9062V9.28125H48.0938V10.9688Z" fill="#902768"/>
<path d="M41.2188 16.0312H44.5938V17.7188H41.2188V16.0312Z" fill="#902768"/>
<path d="M46.2812 16.0312H49.6562V17.7188H46.2812V16.0312Z" fill="#902768"/>
<path d="M41.2188 19.4062H49.6562V21.0938H41.2188V19.4062Z" fill="#902768"/>
<path d="M41.2188 22.7812H49.6562V24.4688H41.2188V22.7812Z" fill="#902768"/>
<path d="M41.2188 26.1562H49.6562V27.8438H41.2188V26.1562Z" fill="#902768"/>
<path d="M41.2188 29.5312H42.9062V31.2188H41.2188V29.5312Z" fill="#902768"/>
<path d="M44.5938 29.5312H46.2812V31.2188H44.5938V29.5312Z" fill="#902768"/>
<path d="M47.9688 29.5312H49.6562V31.2188H47.9688V29.5312Z" fill="#902768"/>
</svg>
