<svg width="1280" height="693" viewBox="0 0 1280 693" fill="none" xmlns="http://www.w3.org/2000/svg">
<mask id="mask0" masktype="alpha" maskUnits="userSpaceOnUse" x="0" y="0" width="1281" height="693">
<g opacity="0.1">
<line x1="36.5" y1="0.093811" x2="36.5" y2="692.094" stroke="white"/>
<line x1="71.4998" y1="0.0941162" x2="71.4998" y2="692.094" stroke="white"/>
<line x1="107.5" y1="0.0941162" x2="107.5" y2="692.094" stroke="white"/>
<line x1="142.5" y1="0.0941162" x2="142.5" y2="692.094" stroke="white"/>
<line x1="178.5" y1="0.0941162" x2="178.5" y2="692.094" stroke="white"/>
<line x1="213.5" y1="0.0941162" x2="213.5" y2="692.094" stroke="white"/>
<line x1="249.5" y1="0.0941162" x2="249.5" y2="692.094" stroke="white"/>
<line x1="284.5" y1="0.0941162" x2="284.5" y2="692.094" stroke="white"/>
<line x1="320.5" y1="0.0941162" x2="320.5" y2="692.094" stroke="white"/>
<line x1="356.5" y1="0.0941162" x2="356.5" y2="692.094" stroke="white"/>
<line x1="391.5" y1="0.0941162" x2="391.5" y2="692.094" stroke="white"/>
<line x1="427.5" y1="0.0941162" x2="427.5" y2="692.094" stroke="white"/>
<line x1="462.5" y1="0.0941162" x2="462.5" y2="692.094" stroke="white"/>
<line x1="498.5" y1="0.0941162" x2="498.5" y2="692.094" stroke="white"/>
<line x1="782.5" y1="0.0941162" x2="782.5" y2="692.094" stroke="white"/>
<line x1="818.5" y1="0.0941162" x2="818.5" y2="692.094" stroke="white"/>
<line x1="853.5" y1="0.0941162" x2="853.5" y2="692.094" stroke="white"/>
<line x1="889.5" y1="0.0941162" x2="889.5" y2="692.094" stroke="white"/>
<line x1="924.5" y1="0.0941162" x2="924.5" y2="692.094" stroke="white"/>
<line x1="960.5" y1="0.0941162" x2="960.5" y2="692.094" stroke="white"/>
<line x1="996.5" y1="0.0941162" x2="996.5" y2="692.094" stroke="white"/>
<line x1="1031.5" y1="0.0941162" x2="1031.5" y2="692.094" stroke="white"/>
<line x1="1067.5" y1="0.0941162" x2="1067.5" y2="692.094" stroke="white"/>
<line x1="1102.5" y1="0.0941162" x2="1102.5" y2="692.094" stroke="white"/>
<line x1="1138.5" y1="0.0941162" x2="1138.5" y2="692.094" stroke="white"/>
<line x1="533.5" y1="0.0941162" x2="533.5" y2="692.094" stroke="white"/>
<line x1="569.5" y1="0.0941162" x2="569.5" y2="692.094" stroke="white"/>
<line x1="604.5" y1="0.0941162" x2="604.5" y2="692.094" stroke="white"/>
<line x1="640.5" y1="0.0941162" x2="640.5" y2="692.094" stroke="white"/>
<line x1="676.5" y1="0.0941162" x2="676.5" y2="692.094" stroke="white"/>
<line x1="711.5" y1="0.0941162" x2="711.5" y2="692.094" stroke="white"/>
<line x1="747.5" y1="0.0941162" x2="747.5" y2="692.094" stroke="white"/>
<line x1="1173.5" y1="0.0941162" x2="1173.5" y2="692.094" stroke="white"/>
<line x1="1209.5" y1="0.0941162" x2="1209.5" y2="692.094" stroke="white"/>
<line x1="1244.5" y1="0.0941162" x2="1244.5" y2="692.094" stroke="white"/>
</g>
<g opacity="0.1">
<line x1="0.000183105" y1="34.5938" x2="1280" y2="34.5938" stroke="white"/>
<line y1="69.5941" x2="1280" y2="69.5941" stroke="white"/>
<line y1="104.594" x2="1280" y2="104.594" stroke="white"/>
<line y1="139.594" x2="1280" y2="139.594" stroke="white"/>
<line y1="174.594" x2="1280" y2="174.594" stroke="white"/>
<line y1="209.594" x2="1280" y2="209.594" stroke="white"/>
<line y1="244.594" x2="1280" y2="244.594" stroke="white"/>
<line y1="279.594" x2="1280" y2="279.594" stroke="white"/>
<line y1="314.594" x2="1280" y2="314.594" stroke="white"/>
<line y1="349.594" x2="1280" y2="349.594" stroke="white"/>
<line y1="384.594" x2="1280" y2="384.594" stroke="white"/>
<line y1="419.594" x2="1280" y2="419.594" stroke="white"/>
<line y1="454.594" x2="1280" y2="454.594" stroke="white"/>
<line y1="489.594" x2="1280" y2="489.594" stroke="white"/>
<line y1="524.594" x2="1280" y2="524.594" stroke="white"/>
<line y1="559.594" x2="1280" y2="559.594" stroke="white"/>
<line y1="594.594" x2="1280" y2="594.594" stroke="white"/>
<line y1="629.594" x2="1280" y2="629.594" stroke="white"/>
<line y1="664.594" x2="1280" y2="664.594" stroke="white"/>
</g>
</mask>
<g mask="url(#mask0)">
<rect y="19" width="1280" height="720" fill="url(#paint0_radial)"/>
</g>
<defs>
<radialGradient id="paint0_radial" cx="0" cy="0" r="1" gradientUnits="userSpaceOnUse" gradientTransform="translate(640 411.254) rotate(90) scale(409.422 727.861)">
<stop stop-color="white"/>
<stop offset="1" stop-color="#C4C4C4" stop-opacity="0"/>
</radialGradient>
</defs>
</svg>
