<svg width="878" height="269" viewBox="0 0 878 269" fill="none" xmlns="http://www.w3.org/2000/svg">
<path d="M30.3322 161.5C30.3322 161.5 114.143 142.52 166 128C216 114 256.537 93.0429 311.232 81.4246C365.557 69.8851 399.34 60.8159 454.995 56.697C511.262 52.5328 540.115 53.0975 596.438 49.7733C652.249 46.4795 686.253 45.0137 741.857 39.2229C797.597 33.4179 876.345 19.1111 876.345 19.1111V241H30.3322V161.5Z" fill="url(#paint0_linear)" stroke="#902768" stroke-width="2"/>
<path d="M597 49.6622C652.81 46.3684 686.814 44.9026 742.419 39.1118C798.159 33.3068 876.906 19 876.906 19" stroke="white" stroke-width="2" stroke-linejoin="round"/>
<line x1="29.3" y1="241" x2="877.3" y2="241" stroke="white" stroke-width="2"/>
<line x1="30.3" y1="1" x2="30.3" y2="242" stroke="white" stroke-width="2"/>
<line x1="876.35" y1="1" x2="876.35" y2="242" stroke="white" stroke-width="2"/>
<circle cx="226" cy="108" r="3" fill="white" stroke="#CC4D65" stroke-width="2"/>
<circle cx="334" cy="76" r="3" fill="white" stroke="#CC4D65" stroke-width="2"/>
<circle cx="442" cy="58" r="3" fill="white" stroke="#CC4D65" stroke-width="2"/>
<circle cx="550" cy="52" r="3" fill="white" stroke="#CC4D65" stroke-width="2"/>
<circle cx="658" cy="46" r="3" fill="white" stroke="#CC4D65" stroke-width="2"/>
<circle cx="766" cy="36" r="3" fill="white" stroke="#CC4D65" stroke-width="2"/>
<path d="M170.056 86.192C169.235 86.192 168.472 85.9893 167.768 85.584C167.075 85.1787 166.52 84.6347 166.104 83.952C165.699 83.2693 165.496 82.5227 165.496 81.712C165.496 80.5067 166.045 79.2747 167.144 78.016L170.648 74H171.256L167.896 77.76C168.173 77.568 168.525 77.4133 168.952 77.296C169.379 77.1787 169.789 77.12 170.184 77.12C170.952 77.12 171.672 77.328 172.344 77.744C173.027 78.16 173.565 78.72 173.96 79.424C174.365 80.128 174.568 80.8853 174.568 81.696C174.568 82.5067 174.365 83.2587 173.96 83.952C173.555 84.6347 173.005 85.1787 172.312 85.584C171.629 85.9893 170.877 86.192 170.056 86.192ZM170.056 85.744C170.781 85.744 171.448 85.5627 172.056 85.2C172.664 84.8373 173.144 84.3467 173.496 83.728C173.859 83.0987 174.04 82.416 174.04 81.68C174.04 80.944 173.859 80.2613 173.496 79.632C173.133 79.0027 172.648 78.5067 172.04 78.144C171.432 77.7707 170.771 77.584 170.056 77.584C169.341 77.584 168.675 77.7707 168.056 78.144C167.437 78.5173 166.941 79.0187 166.568 79.648C166.205 80.2773 166.024 80.9547 166.024 81.68C166.024 82.416 166.205 83.0987 166.568 83.728C166.931 84.3467 167.421 84.8373 168.04 85.2C168.659 85.5627 169.331 85.744 170.056 85.744ZM177.222 74.496H175.334V74.032H177.75V86H177.222V74.496ZM185.113 82.464C186.052 81.8773 186.74 81.2587 187.177 80.608C187.625 79.9467 187.849 79.184 187.849 78.32C187.849 77.5947 187.689 76.928 187.369 76.32C187.049 75.712 186.596 75.2267 186.009 74.864C185.433 74.5013 184.772 74.32 184.025 74.32C183.268 74.32 182.574 74.512 181.945 74.896C181.326 75.28 180.836 75.7973 180.473 76.448C180.11 77.0987 179.929 77.8187 179.929 78.608H179.401C179.401 77.7227 179.604 76.9173 180.009 76.192C180.414 75.4667 180.969 74.896 181.673 74.48C182.377 74.064 183.161 73.856 184.025 73.856C184.868 73.856 185.62 74.0587 186.281 74.464C186.942 74.8693 187.454 75.4133 187.817 76.096C188.19 76.7787 188.377 77.5253 188.377 78.336C188.377 80.0747 187.433 81.5467 185.545 82.752L181.193 85.536H188.329V86H179.529L185.113 82.464ZM190.805 85.616C190.805 85.6907 190.789 85.776 190.757 85.872L190.261 87.008H190.149V86.128C190.021 86.1067 189.909 86.048 189.813 85.952C189.727 85.8453 189.685 85.7227 189.685 85.584C189.685 85.4347 189.738 85.3067 189.845 85.2C189.962 85.0933 190.095 85.04 190.245 85.04C190.394 85.04 190.522 85.0933 190.629 85.2C190.746 85.3067 190.805 85.4347 190.805 85.584V85.616ZM195.414 73.808C196.236 73.808 196.993 74.0107 197.686 74.416C198.39 74.8213 198.945 75.3653 199.35 76.048C199.766 76.7307 199.974 77.4773 199.974 78.288C199.974 79.4933 199.425 80.7253 198.326 81.984L194.822 86H194.214L197.574 82.24C197.297 82.432 196.945 82.5867 196.518 82.704C196.092 82.8213 195.681 82.88 195.286 82.88C194.518 82.88 193.793 82.672 193.11 82.256C192.438 81.84 191.9 81.28 191.494 80.576C191.1 79.872 190.902 79.1147 190.902 78.304C190.902 77.4933 191.105 76.7467 191.51 76.064C191.916 75.3707 192.46 74.8213 193.142 74.416C193.836 74.0107 194.593 73.808 195.414 73.808ZM195.414 74.256C194.689 74.256 194.022 74.4373 193.414 74.8C192.806 75.1627 192.321 75.6587 191.958 76.288C191.606 76.9067 191.43 77.584 191.43 78.32C191.43 79.056 191.612 79.7387 191.974 80.368C192.337 80.9973 192.822 81.4987 193.43 81.872C194.038 82.2347 194.7 82.416 195.414 82.416C196.129 82.416 196.796 82.2293 197.414 81.856C198.033 81.4827 198.524 80.9813 198.886 80.352C199.26 79.7227 199.446 79.0453 199.446 78.32C199.446 77.584 199.265 76.9067 198.902 76.288C198.54 75.6587 198.049 75.1627 197.43 74.8C196.812 74.4373 196.14 74.256 195.414 74.256ZM212.624 78.8V86H212.112V79.904L208.896 86.192L205.664 79.68V86H205.216V78.8H205.792L208.944 85.168L212.144 78.8H212.624ZM220.516 86L217.508 79.744L214.5 86H213.988L217.524 78.592L221.076 86H220.516ZM222.434 78.8H222.946V82.848H227.826V78.8H228.338V86H227.826V83.296H222.946V86H222.434V78.8Z" fill="white"/>
<path d="M201.289 267H193.781V265.883L196.789 262.859C197.706 261.932 198.31 261.271 198.602 260.875C198.893 260.479 199.112 260.094 199.258 259.719C199.404 259.344 199.477 258.94 199.477 258.508C199.477 257.898 199.292 257.417 198.922 257.062C198.552 256.703 198.039 256.523 197.383 256.523C196.909 256.523 196.458 256.602 196.031 256.758C195.609 256.914 195.138 257.198 194.617 257.609L193.93 256.727C194.982 255.852 196.128 255.414 197.367 255.414C198.44 255.414 199.281 255.69 199.891 256.242C200.5 256.789 200.805 257.526 200.805 258.453C200.805 259.177 200.602 259.893 200.195 260.602C199.789 261.31 199.029 262.206 197.914 263.289L195.414 265.734V265.797H201.289V267ZM210.508 261.273C210.508 263.247 210.195 264.721 209.57 265.695C208.951 266.669 208 267.156 206.719 267.156C205.49 267.156 204.555 266.659 203.914 265.664C203.273 264.664 202.953 263.201 202.953 261.273C202.953 259.284 203.263 257.807 203.883 256.844C204.503 255.88 205.448 255.398 206.719 255.398C207.958 255.398 208.898 255.901 209.539 256.906C210.185 257.911 210.508 259.367 210.508 261.273ZM204.266 261.273C204.266 262.935 204.461 264.146 204.852 264.906C205.242 265.661 205.865 266.039 206.719 266.039C207.583 266.039 208.208 265.656 208.594 264.891C208.984 264.12 209.18 262.914 209.18 261.273C209.18 259.633 208.984 258.432 208.594 257.672C208.208 256.906 207.583 256.523 206.719 256.523C205.865 256.523 205.242 256.901 204.852 257.656C204.461 258.406 204.266 259.612 204.266 261.273ZM216.898 267H215.633V258.859C215.633 258.182 215.654 257.542 215.695 256.938C215.586 257.047 215.464 257.161 215.328 257.281C215.193 257.401 214.573 257.909 213.469 258.805L212.781 257.914L215.805 255.578H216.898V267ZM222.695 267L227.43 256.773H221.203V255.578H228.805V256.617L224.133 267H222.695Z" fill="white"/>
<path d="M308.289 267H300.781V265.883L303.789 262.859C304.706 261.932 305.31 261.271 305.602 260.875C305.893 260.479 306.112 260.094 306.258 259.719C306.404 259.344 306.477 258.94 306.477 258.508C306.477 257.898 306.292 257.417 305.922 257.062C305.552 256.703 305.039 256.523 304.383 256.523C303.909 256.523 303.458 256.602 303.031 256.758C302.609 256.914 302.138 257.198 301.617 257.609L300.93 256.727C301.982 255.852 303.128 255.414 304.367 255.414C305.44 255.414 306.281 255.69 306.891 256.242C307.5 256.789 307.805 257.526 307.805 258.453C307.805 259.177 307.602 259.893 307.195 260.602C306.789 261.31 306.029 262.206 304.914 263.289L302.414 265.734V265.797H308.289V267ZM317.508 261.273C317.508 263.247 317.195 264.721 316.57 265.695C315.951 266.669 315 267.156 313.719 267.156C312.49 267.156 311.555 266.659 310.914 265.664C310.273 264.664 309.953 263.201 309.953 261.273C309.953 259.284 310.263 257.807 310.883 256.844C311.503 255.88 312.448 255.398 313.719 255.398C314.958 255.398 315.898 255.901 316.539 256.906C317.185 257.911 317.508 259.367 317.508 261.273ZM311.266 261.273C311.266 262.935 311.461 264.146 311.852 264.906C312.242 265.661 312.865 266.039 313.719 266.039C314.583 266.039 315.208 265.656 315.594 264.891C315.984 264.12 316.18 262.914 316.18 261.273C316.18 259.633 315.984 258.432 315.594 257.672C315.208 256.906 314.583 256.523 313.719 256.523C312.865 256.523 312.242 256.901 311.852 257.656C311.461 258.406 311.266 259.612 311.266 261.273ZM323.898 267H322.633V258.859C322.633 258.182 322.654 257.542 322.695 256.938C322.586 257.047 322.464 257.161 322.328 257.281C322.193 257.401 321.573 257.909 320.469 258.805L319.781 257.914L322.805 255.578H323.898V267ZM332.031 255.414C333.073 255.414 333.898 255.656 334.508 256.141C335.117 256.625 335.422 257.294 335.422 258.148C335.422 258.711 335.247 259.224 334.898 259.688C334.549 260.151 333.992 260.573 333.227 260.953C334.154 261.396 334.812 261.862 335.203 262.352C335.594 262.836 335.789 263.398 335.789 264.039C335.789 264.987 335.458 265.745 334.797 266.312C334.135 266.875 333.229 267.156 332.078 267.156C330.859 267.156 329.922 266.891 329.266 266.359C328.609 265.823 328.281 265.065 328.281 264.086C328.281 262.779 329.078 261.76 330.672 261.031C329.953 260.625 329.438 260.188 329.125 259.719C328.812 259.245 328.656 258.716 328.656 258.133C328.656 257.305 328.961 256.646 329.57 256.156C330.185 255.661 331.005 255.414 332.031 255.414ZM329.562 264.117C329.562 264.742 329.779 265.229 330.211 265.578C330.648 265.927 331.26 266.102 332.047 266.102C332.823 266.102 333.427 265.919 333.859 265.555C334.292 265.19 334.508 264.69 334.508 264.055C334.508 263.549 334.305 263.102 333.898 262.711C333.492 262.315 332.784 261.932 331.773 261.562C330.997 261.896 330.435 262.266 330.086 262.672C329.737 263.073 329.562 263.555 329.562 264.117ZM332.016 256.469C331.365 256.469 330.854 256.625 330.484 256.938C330.115 257.25 329.93 257.667 329.93 258.188C329.93 258.667 330.083 259.078 330.391 259.422C330.698 259.766 331.266 260.109 332.094 260.453C332.839 260.141 333.365 259.805 333.672 259.445C333.984 259.086 334.141 258.667 334.141 258.188C334.141 257.661 333.951 257.245 333.57 256.938C333.195 256.625 332.677 256.469 332.016 256.469Z" fill="white"/>
<path d="M416.289 267H408.781V265.883L411.789 262.859C412.706 261.932 413.31 261.271 413.602 260.875C413.893 260.479 414.112 260.094 414.258 259.719C414.404 259.344 414.477 258.94 414.477 258.508C414.477 257.898 414.292 257.417 413.922 257.062C413.552 256.703 413.039 256.523 412.383 256.523C411.909 256.523 411.458 256.602 411.031 256.758C410.609 256.914 410.138 257.198 409.617 257.609L408.93 256.727C409.982 255.852 411.128 255.414 412.367 255.414C413.44 255.414 414.281 255.69 414.891 256.242C415.5 256.789 415.805 257.526 415.805 258.453C415.805 259.177 415.602 259.893 415.195 260.602C414.789 261.31 414.029 262.206 412.914 263.289L410.414 265.734V265.797H416.289V267ZM425.508 261.273C425.508 263.247 425.195 264.721 424.57 265.695C423.951 266.669 423 267.156 421.719 267.156C420.49 267.156 419.555 266.659 418.914 265.664C418.273 264.664 417.953 263.201 417.953 261.273C417.953 259.284 418.263 257.807 418.883 256.844C419.503 255.88 420.448 255.398 421.719 255.398C422.958 255.398 423.898 255.901 424.539 256.906C425.185 257.911 425.508 259.367 425.508 261.273ZM419.266 261.273C419.266 262.935 419.461 264.146 419.852 264.906C420.242 265.661 420.865 266.039 421.719 266.039C422.583 266.039 423.208 265.656 423.594 264.891C423.984 264.12 424.18 262.914 424.18 261.273C424.18 259.633 423.984 258.432 423.594 257.672C423.208 256.906 422.583 256.523 421.719 256.523C420.865 256.523 420.242 256.901 419.852 257.656C419.461 258.406 419.266 259.612 419.266 261.273ZM431.898 267H430.633V258.859C430.633 258.182 430.654 257.542 430.695 256.938C430.586 257.047 430.464 257.161 430.328 257.281C430.193 257.401 429.573 257.909 428.469 258.805L427.781 257.914L430.805 255.578H431.898V267ZM443.758 260.453C443.758 264.922 442.029 267.156 438.57 267.156C437.966 267.156 437.487 267.104 437.133 267V265.883C437.549 266.018 438.023 266.086 438.555 266.086C439.805 266.086 440.747 265.701 441.383 264.93C442.023 264.154 442.372 262.966 442.43 261.367H442.336C442.049 261.799 441.669 262.13 441.195 262.359C440.721 262.583 440.188 262.695 439.594 262.695C438.583 262.695 437.781 262.393 437.188 261.789C436.594 261.185 436.297 260.341 436.297 259.258C436.297 258.07 436.628 257.133 437.289 256.445C437.956 255.758 438.831 255.414 439.914 255.414C440.69 255.414 441.367 255.615 441.945 256.016C442.529 256.411 442.977 256.992 443.289 257.758C443.602 258.518 443.758 259.417 443.758 260.453ZM439.914 256.523C439.169 256.523 438.594 256.763 438.188 257.242C437.781 257.721 437.578 258.388 437.578 259.242C437.578 259.992 437.766 260.583 438.141 261.016C438.516 261.443 439.086 261.656 439.852 261.656C440.326 261.656 440.76 261.56 441.156 261.367C441.557 261.174 441.872 260.911 442.102 260.578C442.331 260.245 442.445 259.896 442.445 259.531C442.445 258.984 442.339 258.479 442.125 258.016C441.911 257.552 441.612 257.188 441.227 256.922C440.846 256.656 440.409 256.523 439.914 256.523Z" fill="white"/>
<path d="M524.289 267H516.781V265.883L519.789 262.859C520.706 261.932 521.31 261.271 521.602 260.875C521.893 260.479 522.112 260.094 522.258 259.719C522.404 259.344 522.477 258.94 522.477 258.508C522.477 257.898 522.292 257.417 521.922 257.062C521.552 256.703 521.039 256.523 520.383 256.523C519.909 256.523 519.458 256.602 519.031 256.758C518.609 256.914 518.138 257.198 517.617 257.609L516.93 256.727C517.982 255.852 519.128 255.414 520.367 255.414C521.44 255.414 522.281 255.69 522.891 256.242C523.5 256.789 523.805 257.526 523.805 258.453C523.805 259.177 523.602 259.893 523.195 260.602C522.789 261.31 522.029 262.206 520.914 263.289L518.414 265.734V265.797H524.289V267ZM533.508 261.273C533.508 263.247 533.195 264.721 532.57 265.695C531.951 266.669 531 267.156 529.719 267.156C528.49 267.156 527.555 266.659 526.914 265.664C526.273 264.664 525.953 263.201 525.953 261.273C525.953 259.284 526.263 257.807 526.883 256.844C527.503 255.88 528.448 255.398 529.719 255.398C530.958 255.398 531.898 255.901 532.539 256.906C533.185 257.911 533.508 259.367 533.508 261.273ZM527.266 261.273C527.266 262.935 527.461 264.146 527.852 264.906C528.242 265.661 528.865 266.039 529.719 266.039C530.583 266.039 531.208 265.656 531.594 264.891C531.984 264.12 532.18 262.914 532.18 261.273C532.18 259.633 531.984 258.432 531.594 257.672C531.208 256.906 530.583 256.523 529.719 256.523C528.865 256.523 528.242 256.901 527.852 257.656C527.461 258.406 527.266 259.612 527.266 261.273ZM542.602 267H535.094V265.883L538.102 262.859C539.018 261.932 539.622 261.271 539.914 260.875C540.206 260.479 540.424 260.094 540.57 259.719C540.716 259.344 540.789 258.94 540.789 258.508C540.789 257.898 540.604 257.417 540.234 257.062C539.865 256.703 539.352 256.523 538.695 256.523C538.221 256.523 537.771 256.602 537.344 256.758C536.922 256.914 536.451 257.198 535.93 257.609L535.242 256.727C536.294 255.852 537.44 255.414 538.68 255.414C539.753 255.414 540.594 255.69 541.203 256.242C541.812 256.789 542.117 257.526 542.117 258.453C542.117 259.177 541.914 259.893 541.508 260.602C541.102 261.31 540.341 262.206 539.227 263.289L536.727 265.734V265.797H542.602V267ZM551.82 261.273C551.82 263.247 551.508 264.721 550.883 265.695C550.263 266.669 549.312 267.156 548.031 267.156C546.802 267.156 545.867 266.659 545.227 265.664C544.586 264.664 544.266 263.201 544.266 261.273C544.266 259.284 544.576 257.807 545.195 256.844C545.815 255.88 546.76 255.398 548.031 255.398C549.271 255.398 550.211 255.901 550.852 256.906C551.497 257.911 551.82 259.367 551.82 261.273ZM545.578 261.273C545.578 262.935 545.773 264.146 546.164 264.906C546.555 265.661 547.177 266.039 548.031 266.039C548.896 266.039 549.521 265.656 549.906 264.891C550.297 264.12 550.492 262.914 550.492 261.273C550.492 259.633 550.297 258.432 549.906 257.672C549.521 256.906 548.896 256.523 548.031 256.523C547.177 256.523 546.555 256.901 546.164 257.656C545.773 258.406 545.578 259.612 545.578 261.273Z" fill="white"/>
<path d="M632.289 267H624.781V265.883L627.789 262.859C628.706 261.932 629.31 261.271 629.602 260.875C629.893 260.479 630.112 260.094 630.258 259.719C630.404 259.344 630.477 258.94 630.477 258.508C630.477 257.898 630.292 257.417 629.922 257.062C629.552 256.703 629.039 256.523 628.383 256.523C627.909 256.523 627.458 256.602 627.031 256.758C626.609 256.914 626.138 257.198 625.617 257.609L624.93 256.727C625.982 255.852 627.128 255.414 628.367 255.414C629.44 255.414 630.281 255.69 630.891 256.242C631.5 256.789 631.805 257.526 631.805 258.453C631.805 259.177 631.602 259.893 631.195 260.602C630.789 261.31 630.029 262.206 628.914 263.289L626.414 265.734V265.797H632.289V267ZM641.508 261.273C641.508 263.247 641.195 264.721 640.57 265.695C639.951 266.669 639 267.156 637.719 267.156C636.49 267.156 635.555 266.659 634.914 265.664C634.273 264.664 633.953 263.201 633.953 261.273C633.953 259.284 634.263 257.807 634.883 256.844C635.503 255.88 636.448 255.398 637.719 255.398C638.958 255.398 639.898 255.901 640.539 256.906C641.185 257.911 641.508 259.367 641.508 261.273ZM635.266 261.273C635.266 262.935 635.461 264.146 635.852 264.906C636.242 265.661 636.865 266.039 637.719 266.039C638.583 266.039 639.208 265.656 639.594 264.891C639.984 264.12 640.18 262.914 640.18 261.273C640.18 259.633 639.984 258.432 639.594 257.672C639.208 256.906 638.583 256.523 637.719 256.523C636.865 256.523 636.242 256.901 635.852 257.656C635.461 258.406 635.266 259.612 635.266 261.273ZM650.602 267H643.094V265.883L646.102 262.859C647.018 261.932 647.622 261.271 647.914 260.875C648.206 260.479 648.424 260.094 648.57 259.719C648.716 259.344 648.789 258.94 648.789 258.508C648.789 257.898 648.604 257.417 648.234 257.062C647.865 256.703 647.352 256.523 646.695 256.523C646.221 256.523 645.771 256.602 645.344 256.758C644.922 256.914 644.451 257.198 643.93 257.609L643.242 256.727C644.294 255.852 645.44 255.414 646.68 255.414C647.753 255.414 648.594 255.69 649.203 256.242C649.812 256.789 650.117 257.526 650.117 258.453C650.117 259.177 649.914 259.893 649.508 260.602C649.102 261.31 648.341 262.206 647.227 263.289L644.727 265.734V265.797H650.602V267ZM657.055 267H655.789V258.859C655.789 258.182 655.81 257.542 655.852 256.938C655.742 257.047 655.62 257.161 655.484 257.281C655.349 257.401 654.729 257.909 653.625 258.805L652.938 257.914L655.961 255.578H657.055V267Z" fill="white"/>
<path d="M740.289 267H732.781V265.883L735.789 262.859C736.706 261.932 737.31 261.271 737.602 260.875C737.893 260.479 738.112 260.094 738.258 259.719C738.404 259.344 738.477 258.94 738.477 258.508C738.477 257.898 738.292 257.417 737.922 257.062C737.552 256.703 737.039 256.523 736.383 256.523C735.909 256.523 735.458 256.602 735.031 256.758C734.609 256.914 734.138 257.198 733.617 257.609L732.93 256.727C733.982 255.852 735.128 255.414 736.367 255.414C737.44 255.414 738.281 255.69 738.891 256.242C739.5 256.789 739.805 257.526 739.805 258.453C739.805 259.177 739.602 259.893 739.195 260.602C738.789 261.31 738.029 262.206 736.914 263.289L734.414 265.734V265.797H740.289V267ZM749.508 261.273C749.508 263.247 749.195 264.721 748.57 265.695C747.951 266.669 747 267.156 745.719 267.156C744.49 267.156 743.555 266.659 742.914 265.664C742.273 264.664 741.953 263.201 741.953 261.273C741.953 259.284 742.263 257.807 742.883 256.844C743.503 255.88 744.448 255.398 745.719 255.398C746.958 255.398 747.898 255.901 748.539 256.906C749.185 257.911 749.508 259.367 749.508 261.273ZM743.266 261.273C743.266 262.935 743.461 264.146 743.852 264.906C744.242 265.661 744.865 266.039 745.719 266.039C746.583 266.039 747.208 265.656 747.594 264.891C747.984 264.12 748.18 262.914 748.18 261.273C748.18 259.633 747.984 258.432 747.594 257.672C747.208 256.906 746.583 256.523 745.719 256.523C744.865 256.523 744.242 256.901 743.852 257.656C743.461 258.406 743.266 259.612 743.266 261.273ZM758.602 267H751.094V265.883L754.102 262.859C755.018 261.932 755.622 261.271 755.914 260.875C756.206 260.479 756.424 260.094 756.57 259.719C756.716 259.344 756.789 258.94 756.789 258.508C756.789 257.898 756.604 257.417 756.234 257.062C755.865 256.703 755.352 256.523 754.695 256.523C754.221 256.523 753.771 256.602 753.344 256.758C752.922 256.914 752.451 257.198 751.93 257.609L751.242 256.727C752.294 255.852 753.44 255.414 754.68 255.414C755.753 255.414 756.594 255.69 757.203 256.242C757.812 256.789 758.117 257.526 758.117 258.453C758.117 259.177 757.914 259.893 757.508 260.602C757.102 261.31 756.341 262.206 755.227 263.289L752.727 265.734V265.797H758.602V267ZM767.758 267H760.25V265.883L763.258 262.859C764.174 261.932 764.779 261.271 765.07 260.875C765.362 260.479 765.581 260.094 765.727 259.719C765.872 259.344 765.945 258.94 765.945 258.508C765.945 257.898 765.76 257.417 765.391 257.062C765.021 256.703 764.508 256.523 763.852 256.523C763.378 256.523 762.927 256.602 762.5 256.758C762.078 256.914 761.607 257.198 761.086 257.609L760.398 256.727C761.451 255.852 762.596 255.414 763.836 255.414C764.909 255.414 765.75 255.69 766.359 256.242C766.969 256.789 767.273 257.526 767.273 258.453C767.273 259.177 767.07 259.893 766.664 260.602C766.258 261.31 765.497 262.206 764.383 263.289L761.883 265.734V265.797H767.758V267Z" fill="white"/>
<path d="M270.56 54.224C269.824 54.224 269.141 54.0427 268.512 53.68C267.893 53.3067 267.397 52.8107 267.024 52.192C266.661 51.5733 266.48 50.9067 266.48 50.192C266.48 49.3173 266.747 48.528 267.28 47.824C267.824 47.12 268.517 46.64 269.36 46.384C268.955 46.1813 268.624 45.8933 268.368 45.52C268.112 45.1467 267.984 44.7253 267.984 44.256C267.984 43.8187 268.096 43.4133 268.32 43.04C268.544 42.6667 268.848 42.3733 269.232 42.16C269.616 41.9467 270.032 41.84 270.48 41.84C270.928 41.84 271.344 41.9467 271.728 42.16C272.112 42.3733 272.416 42.6667 272.64 43.04C272.864 43.4133 272.976 43.8187 272.976 44.256C272.976 44.704 272.859 45.1093 272.624 45.472C272.389 45.8347 272.064 46.128 271.648 46.352C272.224 46.4907 272.736 46.7467 273.184 47.12C273.632 47.4933 273.984 47.9467 274.24 48.48C274.496 49.0133 274.624 49.584 274.624 50.192C274.624 50.9173 274.443 51.5893 274.08 52.208C273.717 52.8267 273.221 53.3173 272.592 53.68C271.973 54.0427 271.296 54.224 270.56 54.224ZM270.48 46.192C270.821 46.192 271.141 46.1013 271.44 45.92C271.749 45.7387 271.995 45.4987 272.176 45.2C272.357 44.9013 272.448 44.5813 272.448 44.24C272.448 43.8987 272.357 43.5787 272.176 43.28C271.995 42.9813 271.749 42.7467 271.44 42.576C271.141 42.3947 270.821 42.304 270.48 42.304C270.139 42.304 269.813 42.3947 269.504 42.576C269.205 42.7467 268.965 42.9813 268.784 43.28C268.603 43.5787 268.512 43.8987 268.512 44.24C268.512 44.5813 268.603 44.9013 268.784 45.2C268.965 45.4987 269.205 45.7387 269.504 45.92C269.813 46.1013 270.139 46.192 270.48 46.192ZM270.56 53.76C271.189 53.76 271.776 53.6 272.32 53.28C272.864 52.96 273.296 52.528 273.616 51.984C273.936 51.44 274.096 50.848 274.096 50.208C274.096 49.5787 273.936 48.992 273.616 48.448C273.296 47.8933 272.864 47.456 272.32 47.136C271.787 46.816 271.205 46.656 270.576 46.656C269.947 46.656 269.355 46.816 268.8 47.136C268.256 47.456 267.819 47.8933 267.488 48.448C267.168 48.992 267.008 49.5787 267.008 50.208C267.008 50.8373 267.168 51.4293 267.488 51.984C267.808 52.528 268.24 52.96 268.784 53.28C269.339 53.6 269.931 53.76 270.56 53.76ZM280.213 54.16C279.541 54.16 278.896 54.016 278.277 53.728C277.669 53.4293 277.147 53.024 276.709 52.512C276.272 51.9893 275.979 51.408 275.829 50.768H276.325C276.581 51.632 277.072 52.3413 277.797 52.896C278.523 53.44 279.328 53.712 280.213 53.712C280.949 53.712 281.627 53.5307 282.245 53.168C282.864 52.7947 283.355 52.2987 283.717 51.68C284.08 51.0507 284.261 50.368 284.261 49.632C284.261 48.896 284.091 48.2133 283.749 47.584C283.419 46.9547 282.965 46.4587 282.389 46.096C281.824 45.7227 281.205 45.536 280.533 45.536C279.883 45.536 279.275 45.696 278.709 46.016C278.144 46.336 277.643 46.7787 277.205 47.344H276.645L277.205 42H283.445V42.464H277.637L277.205 46.576C277.621 46.096 278.117 45.728 278.693 45.472C279.269 45.216 279.883 45.088 280.533 45.088C281.312 45.088 282.021 45.296 282.661 45.712C283.312 46.1173 283.824 46.6667 284.197 47.36C284.581 48.0533 284.773 48.8107 284.773 49.632C284.773 50.4533 284.565 51.2107 284.149 51.904C283.744 52.5973 283.189 53.1467 282.485 53.552C281.792 53.9573 281.035 54.16 280.213 54.16ZM290.604 54.16C289.932 54.16 289.287 54.016 288.668 53.728C288.06 53.4293 287.537 53.024 287.1 52.512C286.663 51.9893 286.369 51.408 286.22 50.768H286.716C286.972 51.632 287.463 52.3413 288.188 52.896C288.913 53.44 289.719 53.712 290.604 53.712C291.34 53.712 292.017 53.5307 292.636 53.168C293.255 52.7947 293.745 52.2987 294.108 51.68C294.471 51.0507 294.652 50.368 294.652 49.632C294.652 48.896 294.481 48.2133 294.14 47.584C293.809 46.9547 293.356 46.4587 292.78 46.096C292.215 45.7227 291.596 45.536 290.924 45.536C290.273 45.536 289.665 45.696 289.1 46.016C288.535 46.336 288.033 46.7787 287.596 47.344H287.036L287.596 42H293.836V42.464H288.028L287.596 46.576C288.012 46.096 288.508 45.728 289.084 45.472C289.66 45.216 290.273 45.088 290.924 45.088C291.703 45.088 292.412 45.296 293.052 45.712C293.703 46.1173 294.215 46.6667 294.588 47.36C294.972 48.0533 295.164 48.8107 295.164 49.632C295.164 50.4533 294.956 51.2107 294.54 51.904C294.135 52.5973 293.58 53.1467 292.876 53.552C292.183 53.9573 291.425 54.16 290.604 54.16ZM297.555 53.616C297.555 53.6907 297.539 53.776 297.507 53.872L297.011 55.008H296.899V54.128C296.771 54.1067 296.659 54.048 296.563 53.952C296.477 53.8453 296.435 53.7227 296.435 53.584C296.435 53.4347 296.488 53.3067 296.595 53.2C296.712 53.0933 296.845 53.04 296.995 53.04C297.144 53.04 297.272 53.0933 297.379 53.2C297.496 53.3067 297.555 53.4347 297.555 53.584V53.616ZM303.213 54.16C302.541 54.16 301.896 54.016 301.277 53.728C300.669 53.4293 300.147 53.024 299.709 52.512C299.272 51.9893 298.979 51.408 298.829 50.768H299.325C299.581 51.632 300.072 52.3413 300.797 52.896C301.523 53.44 302.328 53.712 303.213 53.712C303.949 53.712 304.627 53.5307 305.245 53.168C305.864 52.7947 306.355 52.2987 306.717 51.68C307.08 51.0507 307.261 50.368 307.261 49.632C307.261 48.896 307.091 48.2133 306.749 47.584C306.419 46.9547 305.965 46.4587 305.389 46.096C304.824 45.7227 304.205 45.536 303.533 45.536C302.883 45.536 302.275 45.696 301.709 46.016C301.144 46.336 300.643 46.7787 300.205 47.344H299.645L300.205 42H306.445V42.464H300.637L300.205 46.576C300.621 46.096 301.117 45.728 301.693 45.472C302.269 45.216 302.883 45.088 303.533 45.088C304.312 45.088 305.021 45.296 305.661 45.712C306.312 46.1173 306.824 46.6667 307.197 47.36C307.581 48.0533 307.773 48.8107 307.773 49.632C307.773 50.4533 307.565 51.2107 307.149 51.904C306.744 52.5973 306.189 53.1467 305.485 53.552C304.792 53.9573 304.035 54.16 303.213 54.16ZM320.624 46.8V54H320.112V47.904L316.896 54.192L313.664 47.68V54H313.216V46.8H313.792L316.944 53.168L320.144 46.8H320.624ZM328.516 54L325.508 47.744L322.5 54H321.988L325.524 46.592L329.076 54H328.516ZM330.434 46.8H330.946V50.848H335.826V46.8H336.338V54H335.826V51.296H330.946V54H330.434V46.8Z" fill="white"/>
<path d="M387.128 24.496H385.24V24.032H387.656V36H387.128V24.496ZM394.039 35.616C394.039 35.6907 394.023 35.776 393.991 35.872L393.495 37.008H393.383V36.128C393.255 36.1067 393.143 36.048 393.047 35.952C392.962 35.8453 392.919 35.7227 392.919 35.584C392.919 35.4347 392.972 35.3067 393.079 35.2C393.196 35.0933 393.33 35.04 393.479 35.04C393.628 35.04 393.756 35.0933 393.863 35.2C393.98 35.3067 394.039 35.4347 394.039 35.584V35.616ZM396.722 24.496H394.834V24.032H397.25V36H396.722V24.496ZM405.941 24.464H398.773V24H406.693L400.517 36H400.005L405.941 24.464ZM419.139 28.8V36H418.627V29.904L415.411 36.192L412.179 29.68V36H411.731V28.8H412.307L415.459 35.168L418.659 28.8H419.139ZM427.032 36L424.024 29.744L421.016 36H420.504L424.04 28.592L427.592 36H427.032ZM428.758 28.8H429.27V30.56C429.558 29.984 430.006 29.52 430.614 29.168C431.222 28.8053 431.862 28.624 432.534 28.624C433.227 28.624 433.862 28.7947 434.438 29.136C435.025 29.4773 435.489 29.936 435.83 30.512C436.171 31.088 436.342 31.7173 436.342 32.4C436.342 33.0827 436.171 33.712 435.83 34.288C435.489 34.864 435.025 35.3227 434.438 35.664C433.862 36.0053 433.227 36.176 432.534 36.176C431.883 36.176 431.254 36 430.646 35.648C430.049 35.296 429.59 34.832 429.27 34.256V39.2H428.758V28.8ZM432.566 35.728C433.153 35.728 433.697 35.5787 434.198 35.28C434.699 34.9707 435.094 34.5653 435.382 34.064C435.681 33.552 435.83 32.9973 435.83 32.4C435.83 31.8133 435.681 31.264 435.382 30.752C435.083 30.24 434.683 29.8347 434.182 29.536C433.681 29.2267 433.137 29.072 432.55 29.072C431.963 29.072 431.414 29.2267 430.902 29.536C430.401 29.8453 429.995 30.256 429.686 30.768C429.387 31.28 429.238 31.8293 429.238 32.416C429.238 33.0027 429.387 33.552 429.686 34.064C429.995 34.5653 430.406 34.9707 430.918 35.28C431.43 35.5787 431.979 35.728 432.566 35.728ZM444.801 35.536V37.552H444.353V36H437.441V37.552H436.993V35.552H437.585L440.929 28.592L444.273 35.536H444.801ZM443.761 35.536L440.929 29.648L438.097 35.536H443.761Z" fill="white"/>
<path d="M497.128 18.496H495.24V18.032H497.656V30H497.128V18.496ZM504.039 29.616C504.039 29.6907 504.023 29.776 503.991 29.872L503.495 31.008H503.383V30.128C503.255 30.1067 503.143 30.048 503.047 29.952C502.962 29.8453 502.919 29.7227 502.919 29.584C502.919 29.4347 502.972 29.3067 503.079 29.2C503.196 29.0933 503.33 29.04 503.479 29.04C503.628 29.04 503.756 29.0933 503.863 29.2C503.98 29.3067 504.039 29.4347 504.039 29.584V29.616ZM509.17 30.16C508.391 30.16 507.687 29.9893 507.058 29.648C506.439 29.296 505.954 28.8267 505.602 28.24C505.25 27.6533 505.074 27.008 505.074 26.304V25.968H505.57V26.224C505.57 26.864 505.719 27.4507 506.018 27.984C506.316 28.5173 506.738 28.9387 507.282 29.248C507.836 29.5573 508.46 29.712 509.154 29.712C509.858 29.712 510.482 29.5733 511.026 29.296C511.58 29.008 512.007 28.6133 512.306 28.112C512.615 27.6107 512.77 27.0453 512.77 26.416C512.77 25.488 512.556 24.7147 512.13 24.096C511.703 23.4667 511.063 23.04 510.21 22.816C510.658 22.5387 510.994 22.2027 511.218 21.808C511.442 21.4027 511.554 20.9813 511.554 20.544C511.554 20.1387 511.458 19.7653 511.266 19.424C511.084 19.072 510.818 18.7947 510.466 18.592C510.114 18.3787 509.703 18.272 509.234 18.272C508.743 18.272 508.306 18.384 507.922 18.608C507.538 18.832 507.234 19.136 507.01 19.52C506.796 19.904 506.679 20.3307 506.658 20.8H506.146C506.167 20.2453 506.306 19.744 506.562 19.296C506.818 18.8373 507.175 18.48 507.634 18.224C508.103 17.9573 508.636 17.824 509.234 17.824C509.799 17.824 510.295 17.952 510.722 18.208C511.148 18.464 511.479 18.8053 511.714 19.232C511.948 19.648 512.066 20.0853 512.066 20.544C512.066 20.96 511.975 21.3547 511.794 21.728C511.612 22.1013 511.34 22.4213 510.978 22.688C511.746 22.9867 512.322 23.456 512.706 24.096C513.1 24.736 513.298 25.536 513.298 26.496C513.298 27.168 513.122 27.7867 512.77 28.352C512.418 28.9067 511.927 29.3493 511.298 29.68C510.668 30 509.959 30.16 509.17 30.16ZM526.139 22.8V30H525.627V23.904L522.411 30.192L519.179 23.68V30H518.731V22.8H519.307L522.459 29.168L525.659 22.8H526.139ZM534.032 30L531.024 23.744L528.016 30H527.504L531.04 22.592L534.592 30H534.032ZM535.758 22.8H536.27V24.56C536.558 23.984 537.006 23.52 537.614 23.168C538.222 22.8053 538.862 22.624 539.534 22.624C540.227 22.624 540.862 22.7947 541.438 23.136C542.025 23.4773 542.489 23.936 542.83 24.512C543.171 25.088 543.342 25.7173 543.342 26.4C543.342 27.0827 543.171 27.712 542.83 28.288C542.489 28.864 542.025 29.3227 541.438 29.664C540.862 30.0053 540.227 30.176 539.534 30.176C538.883 30.176 538.254 30 537.646 29.648C537.049 29.296 536.59 28.832 536.27 28.256V33.2H535.758V22.8ZM539.566 29.728C540.153 29.728 540.697 29.5787 541.198 29.28C541.699 28.9707 542.094 28.5653 542.382 28.064C542.681 27.552 542.83 26.9973 542.83 26.4C542.83 25.8133 542.681 25.264 542.382 24.752C542.083 24.24 541.683 23.8347 541.182 23.536C540.681 23.2267 540.137 23.072 539.55 23.072C538.963 23.072 538.414 23.2267 537.902 23.536C537.401 23.8453 536.995 24.256 536.686 24.768C536.387 25.28 536.238 25.8293 536.238 26.416C536.238 27.0027 536.387 27.552 536.686 28.064C536.995 28.5653 537.406 28.9707 537.918 29.28C538.43 29.5787 538.979 29.728 539.566 29.728ZM551.801 29.536V31.552H551.353V30H544.441V31.552H543.993V29.552H544.585L547.929 22.592L551.273 29.536H551.801ZM550.761 29.536L547.929 23.648L545.097 29.536H550.761Z" fill="white"/>
<path d="M606.128 12.496H604.24V12.032H606.656V24H606.128V12.496ZM613.039 23.616C613.039 23.6907 613.023 23.776 612.991 23.872L612.495 25.008H612.383V24.128C612.255 24.1067 612.143 24.048 612.047 23.952C611.962 23.8453 611.919 23.7227 611.919 23.584C611.919 23.4347 611.972 23.3067 612.079 23.2C612.196 23.0933 612.33 23.04 612.479 23.04C612.628 23.04 612.756 23.0933 612.863 23.2C612.98 23.3067 613.039 23.4347 613.039 23.584V23.616ZM618.65 24.192C617.828 24.192 617.066 23.9893 616.362 23.584C615.668 23.1787 615.114 22.6347 614.698 21.952C614.292 21.2693 614.09 20.5227 614.09 19.712C614.09 18.5067 614.639 17.2747 615.738 16.016L619.242 12H619.85L616.49 15.76C616.767 15.568 617.119 15.4133 617.546 15.296C617.972 15.1787 618.383 15.12 618.778 15.12C619.546 15.12 620.266 15.328 620.938 15.744C621.62 16.16 622.159 16.72 622.554 17.424C622.959 18.128 623.162 18.8853 623.162 19.696C623.162 20.5067 622.959 21.2587 622.554 21.952C622.148 22.6347 621.599 23.1787 620.906 23.584C620.223 23.9893 619.471 24.192 618.65 24.192ZM618.65 23.744C619.375 23.744 620.042 23.5627 620.65 23.2C621.258 22.8373 621.738 22.3467 622.09 21.728C622.452 21.0987 622.634 20.416 622.634 19.68C622.634 18.944 622.452 18.2613 622.09 17.632C621.727 17.0027 621.242 16.5067 620.634 16.144C620.026 15.7707 619.364 15.584 618.65 15.584C617.935 15.584 617.268 15.7707 616.65 16.144C616.031 16.5173 615.535 17.0187 615.162 17.648C614.799 18.2773 614.618 18.9547 614.618 19.68C614.618 20.416 614.799 21.0987 615.162 21.728C615.524 22.3467 616.015 22.8373 616.634 23.2C617.252 23.5627 617.924 23.744 618.65 23.744ZM635.811 16.8V24H635.299V17.904L632.083 24.192L628.851 17.68V24H628.403V16.8H628.979L632.131 23.168L635.331 16.8H635.811ZM643.704 24L640.696 17.744L637.688 24H637.176L640.712 16.592L644.264 24H643.704ZM645.43 16.8H645.942V18.56C646.23 17.984 646.678 17.52 647.286 17.168C647.894 16.8053 648.534 16.624 649.206 16.624C649.899 16.624 650.534 16.7947 651.11 17.136C651.697 17.4773 652.161 17.936 652.502 18.512C652.843 19.088 653.014 19.7173 653.014 20.4C653.014 21.0827 652.843 21.712 652.502 22.288C652.161 22.864 651.697 23.3227 651.11 23.664C650.534 24.0053 649.899 24.176 649.206 24.176C648.555 24.176 647.926 24 647.318 23.648C646.721 23.296 646.262 22.832 645.942 22.256V27.2H645.43V16.8ZM649.238 23.728C649.825 23.728 650.369 23.5787 650.87 23.28C651.371 22.9707 651.766 22.5653 652.054 22.064C652.353 21.552 652.502 20.9973 652.502 20.4C652.502 19.8133 652.353 19.264 652.054 18.752C651.755 18.24 651.355 17.8347 650.854 17.536C650.353 17.2267 649.809 17.072 649.222 17.072C648.635 17.072 648.086 17.2267 647.574 17.536C647.073 17.8453 646.667 18.256 646.358 18.768C646.059 19.28 645.91 19.8293 645.91 20.416C645.91 21.0027 646.059 21.552 646.358 22.064C646.667 22.5653 647.078 22.9707 647.59 23.28C648.102 23.5787 648.651 23.728 649.238 23.728ZM661.473 23.536V25.552H661.025V24H654.113V25.552H653.665V23.552H654.257L657.601 16.592L660.945 23.536H661.473ZM660.433 23.536L657.601 17.648L654.769 23.536H660.433Z" fill="white"/>
<path d="M727.16 10.464C728.099 9.87733 728.787 9.25867 729.224 8.608C729.672 7.94667 729.896 7.184 729.896 6.32C729.896 5.59467 729.736 4.928 729.416 4.32C729.096 3.712 728.643 3.22667 728.056 2.864C727.48 2.50133 726.819 2.32 726.072 2.32C725.315 2.32 724.621 2.512 723.992 2.896C723.373 3.28 722.883 3.79733 722.52 4.448C722.157 5.09867 721.976 5.81867 721.976 6.608H721.448C721.448 5.72267 721.651 4.91733 722.056 4.192C722.461 3.46667 723.016 2.896 723.72 2.48C724.424 2.064 725.208 1.856 726.072 1.856C726.915 1.856 727.667 2.05867 728.328 2.464C728.989 2.86933 729.501 3.41333 729.864 4.096C730.237 4.77867 730.424 5.52533 730.424 6.336C730.424 8.07467 729.48 9.54667 727.592 10.752L723.24 13.536H730.376V14H721.576L727.16 10.464ZM743.311 6.8V14H742.799V7.904L739.583 14.192L736.351 7.68V14H735.903V6.8H736.479L739.631 13.168L742.831 6.8H743.311ZM751.204 14L748.196 7.744L745.188 14H744.676L748.212 6.592L751.764 14H751.204ZM752.93 6.8H753.442V8.56C753.73 7.984 754.178 7.52 754.786 7.168C755.394 6.80533 756.034 6.624 756.706 6.624C757.399 6.624 758.034 6.79467 758.61 7.136C759.197 7.47733 759.661 7.936 760.002 8.512C760.343 9.088 760.514 9.71733 760.514 10.4C760.514 11.0827 760.343 11.712 760.002 12.288C759.661 12.864 759.197 13.3227 758.61 13.664C758.034 14.0053 757.399 14.176 756.706 14.176C756.055 14.176 755.426 14 754.818 13.648C754.221 13.296 753.762 12.832 753.442 12.256V17.2H752.93V6.8ZM756.738 13.728C757.325 13.728 757.869 13.5787 758.37 13.28C758.871 12.9707 759.266 12.5653 759.554 12.064C759.853 11.552 760.002 10.9973 760.002 10.4C760.002 9.81333 759.853 9.264 759.554 8.752C759.255 8.24 758.855 7.83467 758.354 7.536C757.853 7.22667 757.309 7.072 756.722 7.072C756.135 7.072 755.586 7.22667 755.074 7.536C754.573 7.84533 754.167 8.256 753.858 8.768C753.559 9.28 753.41 9.82933 753.41 10.416C753.41 11.0027 753.559 11.552 753.858 12.064C754.167 12.5653 754.578 12.9707 755.09 13.28C755.602 13.5787 756.151 13.728 756.738 13.728ZM768.973 13.536V15.552H768.525V14H761.613V15.552H761.165V13.552H761.757L765.101 6.592L768.445 13.536H768.973ZM767.933 13.536L765.101 7.648L762.269 13.536H767.933Z" fill="white"/>
<path d="M14 231.719L14 232.523L3.32812 232.523L3.32812 236.664C5.09375 236.878 6.76823 237.104 8.35156 237.344C9.9349 237.583 11.0625 237.786 11.7344 237.953C12.4062 238.115 12.9062 238.286 13.2344 238.469C13.5573 238.646 13.7969 238.862 13.9531 239.117C14.1042 239.372 14.1797 239.695 14.1797 240.086C14.1797 240.435 14.1146 240.74 13.9844 241L13.2656 241C13.3802 240.682 13.4375 240.388 13.4375 240.117C13.4375 239.664 13.1562 239.312 12.5937 239.062C12.0312 238.807 10.8177 238.531 8.95312 238.234C7.08854 237.932 4.96354 237.633 2.57812 237.336L2.57812 231.719L14 231.719ZM5.50781 227.937L11.6484 227.937L13.25 227.984L5.50781 222.945L5.50781 221.914L14 221.914L14 222.656L7.89844 222.656L6.25781 222.625L14 227.664L14 228.672L5.50781 228.672L5.50781 227.937ZM9.17187 217.461C9.17187 215.924 8.64323 215.156 7.58594 215.156C7.08073 215.156 6.69531 215.333 6.42969 215.687C6.16406 216.042 6.03125 216.547 6.03125 217.203C6.03125 217.62 6.08073 218.008 6.17969 218.367C6.27344 218.727 6.41146 219.112 6.59375 219.523L5.95312 219.812C5.54687 218.906 5.34375 218.026 5.34375 217.172C5.34375 216.245 5.53646 215.542 5.92187 215.062C6.30729 214.583 6.84114 214.344 7.52344 214.344C8.50781 214.344 9.13542 214.849 9.40625 215.859L9.45312 215.859C9.60937 215.229 9.86979 214.771 10.2344 214.484C10.5937 214.198 11.0547 214.055 11.6172 214.055C12.4036 214.055 13.0234 214.344 13.4766 214.922C13.9297 215.495 14.1562 216.292 14.1562 217.312C14.1562 217.865 14.1042 218.37 14 218.828C13.8906 219.281 13.7474 219.656 13.5703 219.953L12.7969 219.953C13.0521 219.417 13.2266 218.953 13.3203 218.562C13.4089 218.172 13.4531 217.755 13.4531 217.312C13.4531 216.542 13.2917 215.943 12.9687 215.516C12.6406 215.083 12.1745 214.867 11.5703 214.867C10.9818 214.867 10.5469 215.073 10.2656 215.484C9.98437 215.896 9.84375 216.513 9.84375 217.336L9.84375 218.516L9.17187 218.516L9.17187 217.461ZM5.50781 211.094L11.6484 211.094L13.25 211.141L5.50781 206.102L5.50781 205.07L14 205.07L14 205.812L7.89844 205.812L6.25781 205.781L14 210.82L14 211.828L5.50781 211.828L5.50781 211.094ZM5.50781 201.445L9.23437 201.445L9.23437 196.055L5.50781 196.055L5.50781 195.289L14 195.289L14 196.055L9.90625 196.055L9.90625 201.445L14 201.445L14 202.219L5.50781 202.219L5.50781 201.445ZM6.17969 187.445L6.17969 191.664L14 191.664L14 192.437L5.50781 192.437L5.50781 187.445L6.17969 187.445ZM9.74218 178.68C11.1276 178.68 12.2109 179.016 12.9922 179.687C13.7682 180.359 14.1562 181.286 14.1562 182.469C14.1562 183.214 13.9766 183.87 13.6172 184.437C13.2578 185.005 12.7422 185.44 12.0703 185.742C11.3984 186.044 10.6224 186.195 9.74219 186.195C8.35677 186.195 7.27864 185.859 6.50781 185.187C5.73177 184.516 5.34375 183.594 5.34375 182.422C5.34375 181.255 5.73698 180.341 6.52343 179.68C7.30468 179.013 8.3776 178.68 9.74218 178.68ZM9.74219 185.383C10.9089 185.383 11.8203 185.128 12.4766 184.617C13.1276 184.102 13.4531 183.375 13.4531 182.437C13.4531 181.5 13.1276 180.776 12.4766 180.266C11.8203 179.75 10.9089 179.492 9.74218 179.492C8.57031 179.492 7.66146 179.753 7.01562 180.273C6.36979 180.789 6.04687 181.516 6.04687 182.453C6.04687 183.391 6.36979 184.115 7.01562 184.625C7.65625 185.13 8.5651 185.383 9.74219 185.383ZM7.55468 169.812C8.09114 169.812 8.51302 169.945 8.82031 170.211C9.12239 170.477 9.33333 170.909 9.45312 171.508L9.50781 171.508C9.58593 170.826 9.78385 170.333 10.1016 170.031C10.4141 169.724 10.8646 169.57 11.4531 169.57C12.2708 169.57 12.901 169.841 13.3437 170.383C13.7812 170.919 14 171.706 14 172.742L14 176.328L5.50781 176.328L5.50781 172.727C5.50781 171.758 5.68229 171.031 6.03125 170.547C6.38021 170.057 6.88802 169.812 7.55468 169.812ZM11.4375 170.391C10.3958 170.391 9.875 171.19 9.875 172.789L9.875 175.555L13.2656 175.555L13.2656 172.68C13.2656 171.154 12.6562 170.391 11.4375 170.391ZM7.61718 170.633C7.12239 170.633 6.77083 170.81 6.5625 171.164C6.34896 171.518 6.24218 172.049 6.24218 172.758L6.24218 175.555L9.14843 175.555L9.14843 172.852C9.14843 172.06 9.02604 171.492 8.78125 171.148C8.53646 170.805 8.14843 170.633 7.61718 170.633ZM9.08593 166.492L9.08593 163.789C9.08593 161.794 9.86979 160.797 11.4375 160.797C12.2448 160.797 12.875 161.076 13.3281 161.633C13.776 162.19 14 162.99 14 164.031L14 167.266L5.50781 167.266L5.50781 166.492L9.08593 166.492ZM9.82031 166.492L13.2656 166.492L13.2656 163.906C13.2656 163.172 13.112 162.607 12.8047 162.211C12.4974 161.815 12.0365 161.617 11.4219 161.617C10.8594 161.617 10.4531 161.792 10.2031 162.141C9.94791 162.49 9.82031 163.094 9.82031 163.953L9.82031 166.492ZM14 158.547L14 159.312L5.50781 159.312L5.50781 158.547L14 158.547ZM5.50781 154.953L11.6484 154.953L13.25 155L5.50781 149.961L5.50781 148.93L14 148.93L14 149.672L7.89843 149.672L6.25781 149.641L14 154.68L14 155.687L5.50781 155.687L5.50781 154.953ZM4.30468 152.305C4.30468 153.081 4.13281 153.672 3.78906 154.078C3.4401 154.484 2.8802 154.721 2.10937 154.789L2.10937 154.102C2.68229 154.023 3.08854 153.846 3.32812 153.57C3.5625 153.294 3.67968 152.867 3.67968 152.289C3.67968 151.716 3.55729 151.292 3.3125 151.016C3.0677 150.734 2.66666 150.562 2.10937 150.5L2.10937 149.812C3.57291 149.922 4.30468 150.753 4.30468 152.305ZM14 141.148L14 141.922L5.50781 141.922L5.50781 135.148L14 135.148L14 135.922L6.24218 135.922L6.24218 141.148L14 141.148ZM9.74218 125.273C11.1276 125.273 12.2109 125.609 12.9922 126.281C13.7682 126.953 14.1562 127.88 14.1562 129.062C14.1562 129.807 13.9766 130.464 13.6172 131.031C13.2578 131.599 12.7422 132.034 12.0703 132.336C11.3984 132.638 10.6224 132.789 9.74218 132.789C8.35677 132.789 7.27864 132.453 6.50781 131.781C5.73177 131.109 5.34375 130.187 5.34375 129.016C5.34375 127.849 5.73697 126.935 6.52343 126.273C7.30468 125.607 8.3776 125.273 9.74218 125.273ZM9.74218 131.977C10.9088 131.977 11.8203 131.721 12.4766 131.211C13.1276 130.695 13.4531 129.969 13.4531 129.031C13.4531 128.094 13.1276 127.37 12.4766 126.859C11.8203 126.344 10.9088 126.086 9.74218 126.086C8.57031 126.086 7.66145 126.346 7.01562 126.867C6.36979 127.383 6.04687 128.109 6.04687 129.047C6.04687 129.984 6.36979 130.708 7.01562 131.219C7.65625 131.724 8.5651 131.977 9.74218 131.977ZM14.1562 119.289C14.1562 120.596 13.6667 121.549 12.6875 122.148L12.6875 122.203L13.3437 122.18C13.7292 122.159 14.151 122.148 14.6094 122.148L17.8437 122.148L17.8437 122.922L5.50781 122.922L5.50781 122.266L6.71874 122.117L6.71874 122.07C5.80208 121.487 5.34374 120.555 5.34374 119.273C5.34374 118.128 5.72135 117.255 6.47656 116.656C7.22656 116.052 8.32031 115.75 9.75781 115.75C11.1536 115.75 12.237 116.068 13.0078 116.703C13.7734 117.333 14.1562 118.195 14.1562 119.289ZM13.4687 119.305C13.4687 118.435 13.1458 117.763 12.5 117.289C11.8542 116.81 10.9505 116.57 9.78906 116.57C7.29427 116.57 6.04687 117.471 6.04687 119.273C6.04687 120.263 6.32031 120.99 6.86718 121.453C7.40885 121.917 8.29427 122.148 9.52343 122.148L9.77343 122.148C11.1016 122.148 12.0495 121.927 12.6172 121.484C13.1849 121.036 13.4687 120.31 13.4687 119.305ZM6.17968 108L6.17968 110.828L14 110.828L14 111.594L6.17968 111.594L6.17968 114.492L5.50781 114.492L5.50781 108L6.17968 108ZM9.74218 97.8828C11.0495 97.8828 12.0885 98.237 12.8594 98.9453C13.6302 99.6484 14.0625 100.638 14.1562 101.914L17.8437 101.914L17.8437 102.68L14.1562 102.68C14.0833 103.951 13.6615 104.945 12.8906 105.664C12.1198 106.383 11.0703 106.742 9.74218 106.742C8.43489 106.742 7.39843 106.388 6.63281 105.68C5.86718 104.971 5.43749 103.971 5.34374 102.68L1.84374 102.68L1.84374 101.914L5.34374 101.914C5.43749 100.633 5.86718 99.6406 6.63281 98.9375C7.39843 98.2344 8.43489 97.8828 9.74218 97.8828ZM9.74218 105.93C10.8516 105.93 11.7266 105.648 12.3672 105.086C13.0026 104.518 13.3594 103.716 13.4375 102.68L6.06249 102.68C6.15104 103.747 6.51301 104.557 7.14843 105.109C7.77864 105.656 8.64322 105.93 9.74218 105.93ZM9.74218 98.6953C8.65364 98.6953 7.79166 98.974 7.15624 99.5312C6.51562 100.089 6.15104 100.883 6.06249 101.914L13.4375 101.914C13.349 100.872 12.9792 100.076 12.3281 99.5234C11.6771 98.9714 10.8151 98.6953 9.74218 98.6953ZM14.1562 92.1016C14.1562 93.3359 13.776 94.2995 13.0156 94.9922C12.2552 95.6797 11.1901 96.0234 9.82031 96.0234C8.46614 96.0234 7.38281 95.6901 6.57031 95.0234C5.7526 94.3568 5.34374 93.4583 5.34374 92.3281C5.34374 91.3281 5.6927 90.5391 6.39062 89.9609C7.08854 89.3828 8.03645 89.0937 9.23437 89.0937L9.85937 89.0937L9.85937 95.2109C11.026 95.2005 11.9167 94.9297 12.5312 94.3984C13.1458 93.862 13.4531 93.0964 13.4531 92.1016C13.4531 91.6172 13.4193 91.1927 13.3516 90.8281C13.2838 90.4583 13.138 89.9922 12.9141 89.4297L13.6172 89.4297C13.8255 89.9089 13.9661 90.3516 14.0391 90.7578C14.1172 91.1641 14.1562 91.612 14.1562 92.1016ZM6.03124 92.3281C6.03124 93.1458 6.30208 93.8021 6.84374 94.2969C7.3802 94.7917 8.15624 95.0807 9.17187 95.1641L9.17187 89.9141C8.18749 89.9141 7.41926 90.1276 6.86718 90.5547C6.30989 90.9818 6.03124 91.5729 6.03124 92.3281ZM14 80.875L14 81.6406L6.22656 81.6406L6.22656 84.6484C8.28385 84.8047 9.85416 84.9974 10.9375 85.2266C12.0156 85.4505 12.8099 85.7422 13.3203 86.1016C13.8255 86.4557 14.0781 86.9167 14.0781 87.4844C14.0781 87.6875 14.0573 87.8646 14.0156 88.0156L13.3125 88.0156C13.3437 87.9167 13.3594 87.776 13.3594 87.5937C13.3594 87.0052 12.7396 86.5312 11.5 86.1719C10.2552 85.8073 8.25781 85.5312 5.50781 85.3437L5.50781 80.875L14 80.875ZM9.08593 77.2578L9.08593 74.2656C9.08593 72.2708 9.86978 71.2734 11.4375 71.2734C12.2448 71.2734 12.875 71.5521 13.3281 72.1094C13.776 72.6667 14 73.4661 14 74.5078L14 78.0312L5.50781 78.0312L5.50781 77.2578L9.08593 77.2578ZM9.82031 77.2578L13.2656 77.2578L13.2656 74.3828C13.2656 73.6432 13.1094 73.0781 12.7969 72.6875C12.4844 72.2917 12.026 72.0937 11.4219 72.0937C10.8594 72.0937 10.4531 72.2682 10.2031 72.6172C9.94791 72.9661 9.82031 73.5703 9.82031 74.4297L9.82031 77.2578Z" fill="white"/>
<defs>
<linearGradient id="paint0_linear" x1="453.338" y1="25.7051" x2="453.338" y2="241" gradientUnits="userSpaceOnUse">
<stop stop-color="#902768" stop-opacity="0.65"/>
<stop offset="1" stop-color="#922B6B" stop-opacity="0.1"/>
</linearGradient>
</defs>
</svg>
