<svg width="147" height="112" viewBox="0 0 147 112" fill="none" xmlns="http://www.w3.org/2000/svg">
<path d="M119.218 90.1056L121.865 84.5717H124.391L127.519 90.1056H119.218ZM130.887 80.9627H119.459L114.045 90.1056H111.038V95.3988C111.76 95.0379 113.203 93.9552 114.406 93.9552H135.218C136.421 93.9552 137.865 95.0379 138.466 95.3988V90.1056H135.579L130.887 83.0078C130.647 82.6469 130.406 82.4063 130.406 82.1657C130.526 82.0454 130.406 81.083 130.887 80.9627ZM91.549 86.3762L100.211 82.8875V82.5266C100.211 82.0454 99.9701 81.2033 99.3686 80.8424H108.511C108.03 81.083 107.669 81.9251 107.669 82.5266V92.0304C107.669 92.5116 107.91 93.3537 108.511 93.5943H99.3686C99.9701 93.3537 100.211 92.5116 100.211 92.0304V87.4589L91.549 90.9477V92.0304C91.549 92.5116 91.7896 93.3537 92.3912 93.5943H83.2483C83.8498 93.3537 84.0904 92.5116 84.0904 92.0304V82.5266C84.0904 82.0454 83.8498 81.2033 83.2483 80.8424H92.3912C91.7896 81.083 91.549 81.9251 91.549 82.5266V86.3762ZM73.2633 80.9627H65.2032L56.7821 92.7522C56.5415 93.1131 56.0603 93.3537 55.4588 93.7146H63.8799C63.7596 93.474 63.6393 93.3537 63.6393 92.9928C63.6393 92.8725 63.7596 92.3913 64.1205 91.7898L67.6092 86.4965H67.7295L71.2182 91.7898C71.2182 91.9101 71.3385 92.0304 71.4588 92.1507C71.5791 92.271 71.6994 92.5116 71.6994 92.6319C71.6994 92.7522 71.8197 92.8725 71.8197 92.9928C71.8197 93.2334 71.6994 93.474 71.4588 93.5943V93.7146H81.6844C81.3235 93.474 80.9626 93.2334 80.722 92.9928C80.4814 92.7522 80.2408 92.3913 79.8799 91.9101L73.2633 82.7672C73.0227 82.4063 72.9024 82.1657 72.9024 81.9251C72.7821 81.6845 72.7821 81.083 73.2633 80.9627ZM37.7746 87.3386C37.7746 87.9401 38.0152 88.5416 38.4964 89.0228C38.9776 89.5041 39.5791 89.865 40.4212 90.2259C41.2633 90.4665 42.1054 90.5868 43.0678 90.5868C44.0303 90.5868 44.8724 90.4665 45.7145 90.2259C46.5566 89.9853 47.1581 89.6244 47.6393 89.0228C48.1205 88.5416 48.3611 87.9401 48.3611 87.3386C48.3611 86.7371 48.1205 86.1356 47.6393 85.6544C47.1581 85.1732 46.5566 84.8123 45.7145 84.4514C44.8724 84.2108 44.0303 84.0905 43.0678 84.0905C42.1054 84.0905 41.143 84.2108 40.4212 84.4514C39.5791 84.692 38.9776 85.1732 38.4964 85.6544C38.0152 86.1356 37.7746 86.7371 37.7746 87.3386ZM43.1882 80.1206C44.9927 80.1206 46.5566 80.3612 48.1205 80.7221C49.6844 81.083 51.0077 81.5642 52.2107 82.286C53.4137 82.8875 54.2558 83.7296 54.8573 84.5717C55.4588 85.4138 55.8197 86.3762 55.8197 87.3386C55.8197 88.301 55.4588 89.1432 54.8573 90.1056C54.2558 90.9477 53.2934 91.7898 52.2107 92.3913C51.0077 93.1131 49.6844 93.5943 48.1205 93.9552C46.5566 94.3161 44.8724 94.5567 43.0678 94.5567C40.6618 94.5567 38.6167 94.1958 36.5716 93.5943C34.6468 92.9928 33.0829 92.0304 32.0002 90.9477C30.9175 89.865 30.316 88.6619 30.316 87.3386C30.316 86.3762 30.6769 85.5341 31.2784 84.5717C31.8799 83.7296 32.8423 83.0078 33.925 82.286C35.128 81.5642 36.4513 81.083 38.0152 80.7221C39.8197 80.3612 41.3836 80.1206 43.1882 80.1206ZM27.5491 88.9025V94.4364C26.9475 94.3161 26.1054 94.3161 25.2633 94.3161C24.9024 94.3161 24.4212 94.3161 23.94 94.4364C23.3385 94.4364 22.8573 94.5567 22.4964 94.5567C19.8498 94.5567 17.4438 94.1958 15.2784 93.5943C13.113 92.9928 11.3085 92.0304 10.1054 90.9477C8.78214 89.865 8.18063 88.6619 8.18063 87.3386C8.18063 86.3762 8.54154 85.5341 9.26334 84.5717C9.98514 83.7296 10.9476 83.0078 12.2709 82.286C13.5942 81.5642 15.1581 81.083 16.8423 80.7221C18.6468 80.3612 20.4513 80.1206 22.4964 80.1206C22.8573 80.1206 23.3385 80.1206 24.0603 80.2409C24.6618 80.2409 25.143 80.3612 25.3836 80.3612C26.346 80.3612 27.0679 80.3612 27.6694 80.2409V85.6544C26.9476 85.2935 26.2257 85.0529 25.2633 84.8123C24.3009 84.5717 23.4588 84.5717 22.3761 84.5717C21.2934 84.5717 20.2107 84.692 19.3686 84.9326C18.5265 85.1732 17.8047 85.5341 17.3235 86.0153C16.8423 86.4965 16.6017 86.9777 16.6017 87.4589C16.6017 87.9401 16.8423 88.4213 17.3235 88.9025C17.8047 89.3838 18.5265 89.6243 19.3686 89.8649C20.2107 90.1055 21.2934 90.2259 22.3761 90.2259C23.3385 90.2259 24.3009 90.1055 25.2633 89.8649C26.1054 89.6243 26.9475 89.2635 27.5491 88.9025Z" fill="#731446"/>
<path d="M43.1879 53.7747C40.7819 53.7747 38.8571 55.6995 38.8571 58.1055C38.8571 60.5115 40.7819 62.4363 43.1879 62.4363C45.594 62.4363 47.5188 60.5115 47.5188 58.1055C47.5188 55.6995 45.594 53.7747 43.1879 53.7747ZM43.1879 61.7145C41.2631 61.7145 39.6992 60.1506 39.6992 58.1055C39.6992 56.0604 41.2631 54.4965 43.1879 54.4965C45.1128 54.4965 46.6767 56.0604 46.6767 58.1055C46.6767 60.1506 45.2331 61.7145 43.1879 61.7145Z" fill="#731446"/>
<path d="M44.2711 58.1054C44.8726 57.8648 44.9929 57.3836 44.9929 57.143C44.9929 56.0602 44.0305 55.9399 43.5493 55.9399H41.6245V60.2708H42.4666V58.4663H43.0681C44.0305 58.4663 44.0305 58.8272 44.0305 59.3084C44.0305 60.0302 44.0305 60.1505 44.1508 60.2708H44.9929C44.8726 60.0302 44.8726 59.9099 44.8726 59.3084C44.8726 58.7069 44.8726 58.2257 44.2711 58.1054ZM43.429 57.8648H42.4666V56.5414H43.3087C43.7899 56.5414 44.1508 56.6617 44.1508 57.143C44.1508 57.5039 44.0305 57.8648 43.429 57.8648Z" fill="#731446"/>
<path d="M102.857 33.3235V38.0152C86.1352 28.8724 68.4509 20.5716 49.3231 13.7145C52.09 10.5867 55.6991 7.57913 59.5487 5.65432C64.9622 2.0453 75.1878 -0.360714 82.6464 0.120489C90.2254 0.601692 92.6314 1.4438 94.6765 1.4438C96.8419 1.4438 99.8494 1.4438 102.737 0.120489V23.8197C100.692 22.2558 98.2855 21.534 96.6013 21.0528C93.9547 20.331 91.5487 19.9701 88.6615 19.9701C85.4133 19.9701 81.0825 20.5716 79.278 21.534C88.4209 25.2633 95.278 28.9927 102.857 33.3235Z" fill="#731446"/>
<path d="M102.857 42.4661V47.0375C84.6914 37.2932 65.5636 28.2706 44.7516 21.1729C45.3531 19.8496 45.9546 18.5262 46.6764 17.3232C66.7666 24.3007 85.2929 32.9623 102.857 42.4661Z" fill="#731446"/>
<path d="M102.857 51.4892V56.0607C84.2101 45.9554 64.4808 36.8125 42.8267 29.5945C42.947 28.1509 43.0673 26.7073 43.4282 25.2637C64.8417 32.4817 84.3304 41.5043 102.857 51.4892Z" fill="#731446"/>
<path d="M102.857 60.5114V62.4362C100.932 61.955 98.5263 61.7144 95.6391 61.7144C94.5564 61.7144 93.1127 61.8347 91.4285 62.0753C89.624 62.3159 88.1804 62.4362 86.9774 62.4362C78.0751 62.4362 67.8496 60.8723 59.4285 56.5415C50.7669 51.97 44.03 44.5114 42.9473 34.1655C64.4812 41.3836 84.2105 50.5264 102.857 60.5114Z" fill="#731446"/>
<path d="M42.9475 34.1657C38.9776 32.8424 34.8873 31.5191 30.6768 30.3161V25.7446C34.767 26.9476 38.8573 28.2709 42.8272 29.5943C42.8272 30.0755 42.8272 30.677 42.8272 31.2785C42.8272 32.2409 42.9475 33.2033 42.9475 34.1657Z" fill="#731446"/>
<path d="M43.5488 25.263C39.3382 23.8194 35.1277 22.4961 30.7969 21.2931V16.7217C35.6089 18.1653 40.1803 19.6089 44.8721 21.1728C44.2706 22.4961 43.7894 23.8194 43.5488 25.263Z" fill="#731446"/>
<path d="M46.6768 17.3235C41.5039 15.5189 36.0904 13.8347 30.6768 12.1505V7.5791C37.0528 9.38361 43.1881 11.4287 49.3234 13.5941C48.361 14.7971 47.5189 16.0002 46.6768 17.3235Z" fill="#731446"/>
<path d="M35.0075 104.3L43.7895 100.812V100.451C43.7895 99.9694 43.5489 99.1273 42.9474 98.7664H52.2105C51.609 99.007 51.3684 99.8491 51.3684 100.451V110.075C51.3684 110.556 51.609 111.398 52.2105 111.759H42.9474C43.5489 111.518 43.7895 110.676 43.7895 110.075V105.503L35.0075 108.992V110.075C35.0075 110.556 35.2481 111.398 35.8496 111.759H26.5865C27.188 111.518 27.4286 110.676 27.4286 110.075V100.451C27.4286 99.9694 27.188 99.1273 26.5865 98.7664H35.8496C35.2481 99.007 35.0075 99.8491 35.0075 100.451V104.3ZM83.0075 104.3L91.7895 100.812V100.451C91.7895 99.9694 91.5489 99.1273 90.9474 98.7664H100.211C99.609 99.007 99.3684 99.8491 99.3684 100.451V110.075C99.3684 110.556 99.609 111.398 100.211 111.759H90.9474C91.5489 111.518 91.7895 110.676 91.7895 110.075V105.503L83.0075 108.872V109.954C83.0075 110.436 83.2481 111.278 83.8496 111.639H74.5865C75.188 111.398 75.4286 110.556 75.4286 109.954V100.33C75.4286 99.8491 75.188 99.007 74.5865 98.6461H83.8496C83.2481 99.007 83.0075 99.8491 83.0075 100.451V104.3ZM23.9399 100.812V109.593C23.9399 110.075 24.0602 110.556 24.3008 110.796C24.5414 111.157 25.0226 111.398 25.6241 111.518H14.797C15.3985 111.278 15.7594 111.037 16.1203 110.796C16.3609 110.436 16.4812 110.075 16.4812 109.593V100.571H11.0677V102.135C11.0677 105.503 10.3459 107.909 8.90226 109.473C7.45865 111.037 5.29323 111.879 2.52632 111.879C2.16541 111.879 1.92481 111.879 1.56391 111.879C1.20301 111.879 0.842105 111.879 0.481203 111.759L0 109.112C0.240602 109.233 0.601504 109.233 0.962406 109.233C1.32331 109.233 1.56391 109.233 1.92481 109.233C3.36842 109.233 4.57143 108.631 5.29323 107.548C6.01504 106.466 6.49624 104.781 6.49624 102.616C6.49624 101.293 6.25564 100.33 5.89474 99.8491C5.53384 99.3679 4.81203 99.007 3.96993 98.7664H25.8647C25.2632 99.007 24.782 99.2476 24.5414 99.6085C24.0602 99.8491 23.9399 100.21 23.9399 100.812ZM54.6166 101.533L55.2181 98.6461C56.1805 98.6461 57.3835 98.5258 58.7068 98.5258C60.0301 98.4055 61.4737 98.4055 62.9173 98.4055C66.2857 98.4055 68.6917 98.6461 70.2557 99.2476C71.8196 99.8491 72.6617 100.571 72.6617 101.413C72.6617 102.255 72.1805 102.857 71.3384 103.338C70.4963 103.819 69.2932 104.18 67.609 104.421C69.5338 104.541 71.0978 104.781 72.3008 105.383C73.5038 105.984 74.1053 106.586 74.1053 107.428C74.1053 108.872 72.9023 109.954 70.6166 110.796C68.3308 111.518 65.0827 111.999 61.2331 111.999C59.6692 111.999 58.3459 111.999 57.2632 111.879C56.0602 111.759 54.9775 111.518 53.7744 111.278L52.6917 108.27C53.8947 108.872 54.9775 109.353 56.1805 109.593C57.3835 109.834 58.7068 109.954 60.1504 109.954C62.3158 109.954 63.8797 109.834 64.9624 109.353C66.0451 108.992 66.6466 108.39 66.6466 107.669C66.6466 107.067 66.2857 106.466 65.4436 106.105C64.7218 105.744 63.5188 105.503 61.9549 105.503C61.2331 105.503 60.5113 105.503 59.9098 105.624C59.3083 105.744 58.7068 105.744 58.1053 105.984V103.458C58.4662 103.578 58.8271 103.578 59.3083 103.578C59.6692 103.578 60.1504 103.578 60.6316 103.578C62.0752 103.578 63.2782 103.458 64 103.218C64.7218 102.977 65.203 102.496 65.203 101.894C65.203 101.413 64.9624 101.052 64.3609 100.812C63.7594 100.571 62.9173 100.451 61.8346 100.451C60.6316 100.451 59.3083 100.571 58.1053 100.691C56.9023 100.932 55.8196 101.172 54.6166 101.533ZM116.571 98.7664H127.399C126.797 99.007 126.316 99.2476 126.075 99.6085C125.835 99.9694 125.714 100.33 125.714 100.812V109.593C125.714 110.075 125.835 110.556 126.075 110.796C126.316 111.157 126.797 111.398 127.399 111.518H116.571C117.173 111.278 117.534 111.037 117.774 110.796C118.015 110.436 118.135 110.075 118.135 109.593V105.624H110.677V109.593C110.677 110.075 110.797 110.556 111.038 110.796C111.278 111.157 111.759 111.398 112.361 111.518H101.534C102.135 111.278 102.496 111.037 102.737 110.796C102.977 110.436 103.098 110.075 103.098 109.593V100.812C103.098 100.33 102.977 99.9694 102.737 99.6085C102.496 99.2476 102.015 99.007 101.534 98.7664H112.361C111.759 99.007 111.278 99.2476 111.038 99.6085C110.797 99.9694 110.677 100.33 110.677 100.812V103.819H118.135V100.812C118.135 100.33 118.015 99.9694 117.774 99.6085C117.534 99.2476 117.053 99.007 116.571 98.7664ZM128 98.7664H145.203C145.444 98.7664 145.564 98.7664 145.684 98.7664C145.805 98.7664 146.045 98.7664 146.165 98.6461L146.526 101.654C146.165 101.293 145.684 101.172 145.083 101.052C144.481 100.932 143.759 100.812 142.677 100.812H137.143V109.593C137.143 110.075 137.263 110.556 137.504 110.796C137.744 111.157 138.226 111.398 138.827 111.518H128C128.602 111.278 128.962 111.037 129.203 110.796C129.444 110.436 129.564 110.075 129.564 109.593V100.812C129.564 100.33 129.444 99.9694 129.203 99.6085C128.962 99.2476 128.481 99.007 128 98.7664Z" fill="#731446"/>
</svg>
