<svg width="164" height="164" viewBox="0 0 164 164" fill="none" xmlns="http://www.w3.org/2000/svg">
<g clip-path="url(#clip0_1510_82311)">
<path d="M164 82.0019C164 127.293 127.29 164.001 82.0013 164C36.7097 164.001 1.02701e-07 127.293 1.02701e-07 82.0019C-0.00224208 36.711 36.7097 0 82.0013 0C127.29 0 164 36.7123 164 82.0019Z" fill="#792C5E"/>
<path d="M161.016 103.911C160.968 103.856 160.921 103.799 160.865 103.748C160.814 103.692 160.769 103.635 160.713 103.583C160.641 103.506 160.556 103.45 160.474 103.382C160.42 103.316 84.5805 27.4745 84.3966 27.3361C84.2579 27.1516 84.1026 26.9963 83.9181 26.8576C83.4725 26.2647 82.7973 25.8569 81.9994 25.8569C80.6515 25.8569 79.5586 26.9489 79.5586 28.298V103.969C79.5586 104.768 79.967 105.443 80.5593 105.887C80.6979 106.072 125.591 150.994 125.619 151.021C125.649 151.053 125.678 151.084 125.71 151.114C125.737 151.142 125.762 151.169 125.79 151.196C125.812 151.219 125.832 151.242 125.855 151.264C125.855 151.264 125.86 151.268 125.862 151.271C142.81 140.518 155.534 123.726 161.016 103.911Z" fill="#5C1248"/>
<path d="M86.1572 130.516C86.0076 130.346 85.8506 130.185 85.679 130.038C84.7827 129.013 83.4746 128.379 82.0014 128.379H81.9134C79.2205 128.379 77.0702 130.542 77.118 133.347C77.1423 134.844 77.7957 136.104 78.7974 136.962C78.9466 137.133 102.558 160.747 102.73 160.894C102.841 161.021 102.964 161.136 103.087 161.251C106.625 160.312 110.069 159.144 113.403 157.761C113.263 157.605 86.3292 130.664 86.1572 130.516Z" fill="#5C1248"/>
<path d="M82.0018 128.379H81.9134C79.2205 128.379 77.0702 130.542 77.118 133.348C77.1635 136.129 79.3393 138.143 81.9966 138.143H82.0851C84.7779 138.093 86.9282 135.98 86.8805 133.174C86.833 130.393 84.6594 128.379 82.0018 128.379Z" fill="#F4F6F9"/>
<path d="M81.9994 106.41C83.3472 106.41 84.4401 105.318 84.4401 103.969V28.2983C84.4401 26.9492 83.3472 25.8575 81.9994 25.8575C80.6515 25.8575 79.5586 26.9492 79.5586 28.2983V103.969C79.5586 105.318 80.6515 106.41 81.9994 106.41Z" fill="#F4F6F9"/>
</g>
<defs>
<clipPath id="clip0_1510_82311">
<rect width="164" height="164" fill="white"/>
</clipPath>
</defs>
</svg>
