<svg width="36" height="36" viewBox="0 0 36 36" fill="none" xmlns="http://www.w3.org/2000/svg">
<rect width="36" height="36" rx="18" fill="#31154C"/>
<path d="M21.5491 18V19.3527C21.5491 20.5745 22.5382 21.5782 23.7746 21.5782C24.9964 21.5782 26 20.5891 26 19.3527V18C26 13.5782 22.4218 10 18 10C13.5782 10 10 13.5782 10 18C10 22.4218 13.5782 26 18 26" stroke="#F1F1F3" stroke-width="1.25" stroke-miterlimit="10" stroke-linecap="square"/>
<path d="M21.5494 18V15.5127C20.793 14.8727 19.9639 14.4509 18.0002 14.4509C16.0366 14.4509 14.4512 16.0364 14.4512 18C14.4512 19.9637 16.0366 21.5491 18.0002 21.5491C19.9639 21.5491 21.5494 19.9637 21.5494 18Z" stroke="#F1F1F3" stroke-width="1.25" stroke-miterlimit="10" stroke-linecap="square"/>
</svg>
