<svg width="20" height="20" viewBox="0 0 20 20" fill="none" xmlns="http://www.w3.org/2000/svg">
<path d="M17.0539 9.1454V4.10125C17.0539 2.90241 16.0722 1.91222 14.8732 1.91222H14.6016V1.57029C14.6016 0.714933 13.9082 0.0215108 13.0529 0.0215108C12.1975 0.0215108 11.5041 0.714933 11.5041 1.57029V1.91222H5.82524V1.57029C5.82524 0.703059 5.12218 0 4.25495 0C3.38772 0 2.68466 0.703059 2.68466 1.57029V1.91222H2.44998C1.25109 1.91222 0.275452 2.90241 0.275452 4.10125V15.6837C0.275452 16.8826 1.25109 17.8732 2.44998 17.8732H9.27294C10.3978 19.2188 12.0605 19.9974 13.8143 20C17.0711 20 19.724 17.3466 19.724 14.0897C19.7241 12.0255 18.6457 10.2017 17.0539 9.1454ZM12.3645 1.57029C12.3579 1.19557 12.6562 0.886417 13.031 0.879791C13.037 0.879705 13.043 0.879662 13.049 0.879705C13.4273 0.875704 13.7372 1.17909 13.7412 1.55738C13.7413 1.56168 13.7413 1.56599 13.7412 1.57029V3.24589H12.3645V1.57029ZM3.54509 1.57029C3.54918 1.18477 3.86504 0.875575 4.25056 0.879662C4.25125 0.879662 4.25189 0.879662 4.25254 0.879705C4.63947 0.879705 4.9648 1.18339 4.9648 1.57029V3.24589H3.54509V1.57029ZM1.13588 4.10125C1.13588 3.37681 1.72554 2.77265 2.44998 2.77265H2.68466V3.694C2.68466 3.93157 2.88308 4.10632 3.12068 4.10632H5.38448C5.62205 4.10632 5.82524 3.93157 5.82524 3.694V2.77265H11.5041V3.694C11.4977 3.91535 11.672 4.09996 11.8933 4.10632C11.9013 4.10654 11.9092 4.10654 11.9171 4.10632H14.1809C14.4057 4.11381 14.594 3.93764 14.6015 3.71285C14.6017 3.70657 14.6017 3.70029 14.6016 3.694V2.77265H14.8732C15.6026 2.78001 16.1907 3.3719 16.1934 4.10125V5.48301H1.13588V4.10125ZM2.44998 17.0128C1.72554 17.0128 1.13588 16.4081 1.13588 15.6837V6.34345H16.1934V8.67754C15.4446 8.34872 14.6355 8.17913 13.8176 8.17943C10.5609 8.17943 7.90959 10.8367 7.90959 14.0936C7.90795 15.1167 8.17241 16.1227 8.67705 17.0128H2.44998ZM13.8143 19.1319C11.0275 19.1319 8.7683 16.8727 8.7683 14.0859C8.7683 11.299 11.0275 9.03982 13.8143 9.03982C16.6012 9.03982 18.8604 11.299 18.8604 14.0859V14.0859C18.8572 16.8714 16.5999 19.1288 13.8143 19.1319Z" fill="#902768"/>
<path d="M15.8411 14.0871H13.9563V11.4985C13.9563 11.2608 13.7637 11.0682 13.5261 11.0682C13.2885 11.0682 13.0959 11.2608 13.0959 11.4985V14.5169C13.0997 14.7561 13.2949 14.9479 13.5342 14.9475H15.8411C16.0787 14.9475 16.2713 14.7549 16.2713 14.5173C16.2713 14.2797 16.0787 14.0871 15.8411 14.0871Z" fill="#902768"/>
</svg>
