<svg width="14" height="14" viewBox="0 0 14 14" fill="none" xmlns="http://www.w3.org/2000/svg">
<path d="M13.3636 0H8.27269C7.92124 0 7.63632 0.284922 7.63632 0.636371C7.63632 0.98782 7.92124 1.27274 8.27269 1.27274H11.8273L5.2773 7.82277C5.02882 8.07125 5.02882 8.47418 5.2773 8.72271C5.40152 8.84693 5.56438 8.90909 5.72724 8.90909C5.8901 8.90909 6.05298 8.84693 6.17718 8.72268L12.7273 2.17268V5.72729C12.7273 6.07873 13.0122 6.36366 13.3636 6.36366C13.7151 6.36366 14 6.07873 14 5.72729V0.636371C14 0.284922 13.715 0 13.3636 0Z" fill="#D0CECE"/>
<path d="M10.8182 6.36358C10.4667 6.36358 10.1818 6.6485 10.1818 6.99995V12.7272H1.27271V3.81812H7C7.35145 3.81812 7.63637 3.5332 7.63637 3.18175C7.63637 2.8303 7.35145 2.54541 7 2.54541H0.636371C0.284922 2.54541 0 2.83033 0 3.18178V13.3636C0 13.715 0.284922 14 0.636371 14H10.8182C11.1696 14 11.4546 13.715 11.4546 13.3636V6.99995C11.4545 6.6485 11.1696 6.36358 10.8182 6.36358Z" fill="#D0CECE"/>
</svg>
