<svg width="80" height="62" viewBox="0 0 80 62" fill="none" xmlns="http://www.w3.org/2000/svg">
<path d="M65.0369 49.155L66.4807 46.1361H67.8589L69.5652 49.155H65.0369ZM71.4028 44.1673H65.1682L62.2149 49.155H60.5742V52.0426C60.968 51.8457 61.7555 51.2551 62.4118 51.2551H73.7654C74.4217 51.2551 75.2092 51.8457 75.5373 52.0426V49.155H73.9623L71.4028 45.283C71.2715 45.0861 71.1403 44.9548 71.1403 44.8236C71.2059 44.758 71.1403 44.2329 71.4028 44.1673ZM49.9426 47.1206L54.6678 45.2174V45.0205C54.6678 44.758 54.5365 44.2986 54.2084 44.1017H59.1961C58.9336 44.2329 58.7367 44.6923 58.7367 45.0205V50.205C58.7367 50.4676 58.8679 50.927 59.1961 51.0582H54.2084C54.5365 50.927 54.6678 50.4676 54.6678 50.205V47.7112L49.9426 49.6144V50.205C49.9426 50.4676 50.0738 50.927 50.402 51.0582H45.4143C45.7424 50.927 45.8737 50.4676 45.8737 50.205V45.0205C45.8737 44.758 45.7424 44.2986 45.4143 44.1017H50.402C50.0738 44.2329 49.9426 44.6923 49.9426 45.0205V47.1206ZM39.9672 44.1673H35.5701L30.9762 50.5988C30.845 50.7957 30.5825 50.927 30.2543 51.1238H34.8482C34.7826 50.9926 34.717 50.927 34.717 50.7301C34.717 50.6644 34.7826 50.4019 34.9795 50.0738L36.8827 47.1862H36.9483L38.8515 50.0738C38.8515 50.1394 38.9172 50.205 38.9828 50.2707C39.0484 50.3363 39.114 50.4676 39.114 50.5332C39.114 50.5988 39.1797 50.6644 39.1797 50.7301C39.1797 50.8613 39.114 50.9926 38.9828 51.0582V51.1238H44.5611C44.3642 50.9926 44.1674 50.8613 44.0361 50.7301C43.9048 50.5988 43.7736 50.4019 43.5767 50.1394L39.9672 45.1517C39.8359 44.9548 39.7703 44.8236 39.7703 44.6923C39.7047 44.5611 39.7047 44.2329 39.9672 44.1673ZM20.6071 47.6456C20.6071 47.9737 20.7383 48.3018 21.0008 48.5644C21.2633 48.8269 21.5915 49.0238 22.0509 49.2206C22.5103 49.3519 22.9697 49.4175 23.4947 49.4175C24.0197 49.4175 24.4791 49.3519 24.9385 49.2206C25.3979 49.0894 25.726 48.8925 25.9885 48.5644C26.251 48.3018 26.3823 47.9737 26.3823 47.6456C26.3823 47.3174 26.251 46.9893 25.9885 46.7268C25.726 46.4643 25.3979 46.2674 24.9385 46.0705C24.4791 45.9393 24.0197 45.8736 23.4947 45.8736C22.9697 45.8736 22.4446 45.9393 22.0509 46.0705C21.5915 46.2018 21.2633 46.4643 21.0008 46.7268C20.7383 46.9893 20.6071 47.3174 20.6071 47.6456ZM23.5603 43.7079C24.5447 43.7079 25.3979 43.8392 26.251 44.0361C27.1042 44.2329 27.8261 44.4955 28.4824 44.8892C29.1386 45.2174 29.598 45.6767 29.9262 46.1361C30.2543 46.5955 30.4512 47.1206 30.4512 47.6456C30.4512 48.1706 30.2543 48.63 29.9262 49.155C29.598 49.6144 29.073 50.0738 28.4824 50.4019C27.8261 50.7957 27.1042 51.0582 26.251 51.2551C25.3979 51.452 24.4791 51.5832 23.4947 51.5832C22.1821 51.5832 21.0665 51.3863 19.9508 51.0582C18.9007 50.7301 18.0476 50.205 17.4569 49.6144C16.8663 49.0238 16.5382 48.3675 16.5382 47.6456C16.5382 47.1206 16.735 46.6612 17.0632 46.1361C17.3913 45.6767 17.9163 45.283 18.507 44.8892C19.1633 44.4955 19.8852 44.2329 20.7383 44.0361C21.7227 43.8392 22.5759 43.7079 23.5603 43.7079ZM15.0287 48.4987V51.5176C14.7006 51.452 14.2412 51.452 13.7818 51.452C13.5849 51.452 13.3224 51.452 13.0599 51.5176C12.7318 51.5176 12.4692 51.5832 12.2724 51.5832C10.8286 51.5832 9.516 51.3863 8.3347 51.0582C7.15341 50.7301 6.16899 50.205 5.51272 49.6144C4.79082 49.0238 4.46268 48.3675 4.46268 47.6456C4.46268 47.1206 4.65956 46.6612 5.05333 46.1361C5.44709 45.6767 5.97211 45.283 6.69402 44.8892C7.41592 44.4955 8.26908 44.2329 9.18786 44.0361C10.1723 43.8392 11.1567 43.7079 12.2724 43.7079C12.4692 43.7079 12.7318 43.7079 13.1255 43.7735C13.4537 43.7735 13.7162 43.8392 13.8474 43.8392C14.3724 43.8392 14.7662 43.8392 15.0943 43.7735V46.7268C14.7006 46.5299 14.3068 46.3987 13.7818 46.2674C13.2568 46.1361 12.7974 46.1361 12.2067 46.1361C11.6161 46.1361 11.0254 46.2018 10.566 46.333C10.1066 46.4643 9.71288 46.6612 9.45037 46.9237C9.18786 47.1862 9.05661 47.4487 9.05661 47.7112C9.05661 47.9737 9.18786 48.2362 9.45037 48.4987C9.71288 48.7612 10.1066 48.8925 10.566 49.0238C11.0254 49.155 11.6161 49.2206 12.2067 49.2206C12.7318 49.2206 13.2568 49.155 13.7818 49.0238C14.2412 48.8925 14.7006 48.6956 15.0287 48.4987Z" fill="white"/>
<path d="M23.5603 29.7292C22.5103 29.7292 21.6571 30.5824 21.6571 31.6981C21.6571 32.8137 22.5103 33.6669 23.5603 33.6669C24.6103 33.6669 25.4635 32.8137 25.4635 31.6981C25.4635 30.5824 24.676 29.7292 23.5603 29.7292ZM24.1509 32.8794C24.0853 32.8137 24.0853 32.7481 24.0853 32.3543C24.0853 32.1575 24.0853 31.895 23.5603 31.895H23.2322V32.8794H22.7728V30.5168H23.8228C24.0853 30.5168 24.6103 30.5824 24.6103 31.1731C24.6103 31.3043 24.5447 31.5668 24.2166 31.6981C24.5447 31.7637 24.5447 32.0262 24.5447 32.2887C24.5447 32.6825 24.5447 32.7481 24.6103 32.8137H24.1509V32.8794Z" fill="white"/>
<path d="M23.5603 29.3355C22.2478 29.3355 21.1977 30.3855 21.1977 31.6981C21.1977 33.0106 22.2478 34.0607 23.5603 34.0607C24.8729 34.0607 25.9229 33.0106 25.9229 31.6981C25.9229 30.3855 24.8729 29.3355 23.5603 29.3355ZM23.5603 33.6669C22.5103 33.6669 21.6571 32.8137 21.6571 31.6981C21.6571 30.5824 22.5103 29.7292 23.5603 29.7292C24.6103 29.7292 25.4635 30.5824 25.4635 31.6981C25.4635 32.8137 24.676 33.6669 23.5603 33.6669Z" fill="white"/>
<path d="M24.151 31.6981C24.4791 31.5668 24.5447 31.3043 24.5447 31.1731C24.5447 30.5824 24.0197 30.5168 23.7572 30.5168H22.7071V32.8794H23.1665V31.895H23.4947C24.0197 31.895 24.0197 32.0918 24.0197 32.3544C24.0197 32.7481 24.0197 32.8137 24.0853 32.8794H24.5447C24.4791 32.7481 24.4791 32.6825 24.4791 32.3544C24.4791 32.0262 24.4791 31.7637 24.151 31.6981ZM23.6916 31.5668H23.1665V30.8449H23.6259C23.8884 30.8449 24.0853 30.9105 24.0853 31.1731C24.0853 31.3699 24.0197 31.5668 23.6916 31.5668Z" fill="white"/>
<path d="M56.1116 18.1788V20.7383C46.9893 15.7506 37.3421 11.2223 26.9073 7.48151C28.4167 5.77519 30.3856 4.1345 32.4856 3.08446C35.4389 1.11563 41.0172 -0.196918 45.0861 0.0655924C49.2207 0.328103 50.5332 0.787496 51.6489 0.787496C52.8302 0.787496 54.4709 0.787496 56.0459 0.0655924V12.9942C54.9303 12.1411 53.6177 11.7473 52.6989 11.4848C51.2551 11.091 49.9426 10.8941 48.3675 10.8941C46.5956 10.8941 44.233 11.2223 43.2486 11.7473C48.2363 13.7818 51.977 15.8162 56.1116 18.1788Z" fill="white"/>
<path d="M56.1116 23.1665V25.6603C46.2018 20.3445 35.767 15.4224 24.4135 11.5504C24.7416 10.8285 25.0697 10.1066 25.4635 9.45034C36.4233 13.2567 46.5299 17.9819 56.1116 23.1665Z" fill="white"/>
<path d="M56.1116 28.0886V30.5824C45.9393 25.0697 35.1764 20.082 23.3634 16.1443C23.429 15.3568 23.4947 14.5693 23.6916 13.7817C35.3733 17.7194 46.0049 22.6415 56.1116 28.0886Z" fill="white"/>
<path d="M56.1116 33.0106V34.0607C55.0615 33.7982 53.749 33.6669 52.1739 33.6669C51.5833 33.6669 50.7957 33.7325 49.8769 33.8638C48.8925 33.995 48.105 34.0607 47.4487 34.0607C42.5923 34.0607 37.0139 33.2075 32.42 30.8449C27.6948 28.3511 24.0197 24.2822 23.429 18.6382C35.1764 22.5758 45.9393 27.5635 56.1116 33.0106Z" fill="white"/>
<path d="M23.429 18.6382C21.2633 17.9163 19.032 17.1944 16.735 16.5381V14.0443C18.9664 14.7005 21.1977 15.4224 23.3634 16.1443C23.3634 16.4068 23.3634 16.735 23.3634 17.0631C23.3634 17.5882 23.429 18.1132 23.429 18.6382Z" fill="white"/>
<path d="M23.7572 13.7818C21.4602 12.9942 19.1633 12.2723 16.8007 11.616V9.1222C19.4258 9.90973 21.9196 10.6973 24.4791 11.5504C24.151 12.2723 23.8884 12.9942 23.7572 13.7818Z" fill="white"/>
<path d="M25.4635 9.45034C22.6415 8.46592 19.6883 7.54713 16.735 6.62834V4.1345C20.2133 5.11891 23.5603 6.23458 26.9073 7.41587C26.3823 8.07215 25.9229 8.72843 25.4635 9.45034Z" fill="white"/>
<path d="M19.0976 56.8991L23.8884 54.9959V54.799C23.8884 54.5365 23.7572 54.0771 23.429 53.8802H28.4824C28.1542 54.0114 28.023 54.4708 28.023 54.799V60.0492C28.023 60.3117 28.1542 60.7711 28.4824 60.968H23.429C23.7572 60.8367 23.8884 60.3773 23.8884 60.0492V57.5553L19.0976 59.4585V60.0492C19.0976 60.3117 19.2289 60.7711 19.557 60.968H14.5037C14.8318 60.8367 14.9631 60.3773 14.9631 60.0492V54.799C14.9631 54.5365 14.8318 54.0771 14.5037 53.8802H19.557C19.2289 54.0114 19.0976 54.4708 19.0976 54.799V56.8991ZM45.283 56.8991L50.0738 54.9959V54.799C50.0738 54.5365 49.9426 54.0771 49.6144 53.8802H54.6678C54.3396 54.0114 54.2084 54.4708 54.2084 54.799V60.0492C54.2084 60.3117 54.3396 60.7711 54.6678 60.968H49.6144C49.9426 60.8367 50.0738 60.3773 50.0738 60.0492V57.5553L45.283 59.3929V59.9836C45.283 60.2461 45.4143 60.7055 45.7424 60.9023H40.6891C41.0172 60.7711 41.1485 60.3117 41.1485 59.9836V54.7334C41.1485 54.4708 41.0172 54.0114 40.6891 53.8146H45.7424C45.4143 54.0114 45.283 54.4708 45.283 54.799V56.8991ZM13.0599 54.9959V59.7867C13.0599 60.0492 13.1255 60.3117 13.2568 60.4429C13.388 60.6398 13.6505 60.7711 13.9787 60.8367H8.07219C8.40033 60.7055 8.59721 60.5742 8.79409 60.4429C8.92535 60.2461 8.99098 60.0492 8.99098 59.7867V54.8646H6.03774V55.7178C6.03774 57.5553 5.64397 58.8679 4.85644 59.721C4.06891 60.5742 2.88761 61.0336 1.37818 61.0336C1.1813 61.0336 1.05004 61.0336 0.853158 61.0336C0.656276 61.0336 0.459393 61.0336 0.26251 60.968L0 59.5242C0.131255 59.5898 0.328138 59.5898 0.525021 59.5898C0.721903 59.5898 0.853158 59.5898 1.05004 59.5898C1.83757 59.5898 2.49385 59.2617 2.88761 58.671C3.28138 58.0804 3.54389 57.1616 3.54389 55.9803C3.54389 55.2584 3.41263 54.7334 3.21575 54.4708C3.01887 54.2083 2.6251 54.0114 2.16571 53.8802H14.1099C13.7818 54.0114 13.5193 54.1427 13.388 54.3396C13.1255 54.4708 13.0599 54.6677 13.0599 54.9959ZM29.7949 55.3896L30.1231 53.8146C30.6481 53.8146 31.3043 53.7489 32.0262 53.7489C32.7482 53.6833 33.5357 53.6833 34.3232 53.6833C36.1608 53.6833 37.4733 53.8146 38.3265 54.1427C39.1797 54.4708 39.639 54.8646 39.639 55.324C39.639 55.7834 39.3765 56.1115 38.9171 56.374C38.4578 56.6365 37.8015 56.8334 36.8827 56.9647C37.9327 57.0303 38.7859 57.1616 39.4422 57.4897C40.0984 57.8178 40.4266 58.146 40.4266 58.6054C40.4266 59.3929 39.7703 59.9836 38.5234 60.4429C37.2765 60.8367 35.5045 61.0992 33.4044 61.0992C32.5513 61.0992 31.8294 61.0992 31.2387 61.0336C30.5824 60.968 29.9918 60.8367 29.3355 60.7055L28.7449 59.0648C29.4011 59.3929 29.9918 59.6554 30.6481 59.7867C31.3043 59.9179 32.0263 59.9836 32.8138 59.9836C33.9951 59.9836 34.8482 59.9179 35.4389 59.6554C36.0295 59.4585 36.3577 59.1304 36.3577 58.7366C36.3577 58.4085 36.1608 58.0804 35.7014 57.8835C35.3076 57.6866 34.6514 57.5553 33.7982 57.5553C33.4044 57.5553 33.0107 57.5553 32.6825 57.621C32.3544 57.6866 32.0263 57.6866 31.6981 57.8178V56.4397C31.895 56.5053 32.0919 56.5053 32.3544 56.5053C32.5513 56.5053 32.8138 56.5053 33.0763 56.5053C33.8638 56.5053 34.5201 56.4397 34.9139 56.3084C35.3076 56.1772 35.5701 55.9146 35.5701 55.5865C35.5701 55.324 35.4389 55.1271 35.1107 54.9959C34.7826 54.8646 34.3232 54.799 33.7326 54.799C33.0763 54.799 32.3544 54.8646 31.6981 54.9302C31.0418 55.0615 30.4512 55.1927 29.7949 55.3896ZM63.5931 53.8802H69.4996C69.1715 54.0114 68.9089 54.1427 68.7777 54.3396C68.6464 54.5365 68.5808 54.7334 68.5808 54.9959V59.7867C68.5808 60.0492 68.6464 60.3117 68.7777 60.4429C68.9089 60.6398 69.1715 60.7711 69.4996 60.8367H63.5931C63.9212 60.7055 64.1181 60.5742 64.2494 60.4429C64.3806 60.2461 64.4463 60.0492 64.4463 59.7867V57.621H60.3774V59.7867C60.3774 60.0492 60.443 60.3117 60.5742 60.4429C60.7055 60.6398 60.968 60.7711 61.2961 60.8367H55.3897C55.7178 60.7055 55.9147 60.5742 56.0459 60.4429C56.1772 60.2461 56.2428 60.0492 56.2428 59.7867V54.9959C56.2428 54.7334 56.1772 54.5365 56.0459 54.3396C55.9147 54.1427 55.6522 54.0114 55.3897 53.8802H61.2961C60.968 54.0114 60.7055 54.1427 60.5742 54.3396C60.443 54.5365 60.3774 54.7334 60.3774 54.9959V56.6366H64.4463V54.9959C64.4463 54.7334 64.3806 54.5365 64.2494 54.3396C64.1181 54.1427 63.8556 54.0114 63.5931 53.8802ZM69.8277 53.8802H79.2125C79.3437 53.8802 79.4093 53.8802 79.475 53.8802C79.5406 53.8802 79.6719 53.8802 79.7375 53.8146L79.9344 55.4553C79.7375 55.2584 79.475 55.1927 79.1468 55.1271C78.8187 55.0615 78.4249 54.9959 77.8343 54.9959H74.8154V59.7867C74.8154 60.0492 74.8811 60.3117 75.0123 60.4429C75.1436 60.6398 75.4061 60.7711 75.7342 60.8367H69.8277C70.1559 60.7055 70.3527 60.5742 70.484 60.4429C70.6153 60.2461 70.6809 60.0492 70.6809 59.7867V54.9959C70.6809 54.7334 70.6153 54.5365 70.484 54.3396C70.3527 54.1427 70.0902 54.0114 69.8277 53.8802Z" fill="white"/>
</svg>
