<svg width="42" height="48" viewBox="0 0 42 48" fill="none" xmlns="http://www.w3.org/2000/svg">
<path d="M9 0C7.35 0 6 1.35 6 3V45C6 46.65 7.35 48 9 48H39C40.65 48 42 46.65 42 45V12L30 0H9Z" fill="#E2E5E7"/>
<path d="M33 12H42L30 0V9C30 10.65 31.35 12 33 12Z" fill="#B0B7BD"/>
<path d="M42 21L33 12H42V21Z" fill="white"/>
<path d="M36 39C36 39.825 35.325 40.5 34.5 40.5H1.5C0.675 40.5 0 39.825 0 39V24C0 23.175 0.675 22.5 1.5 22.5H34.5C35.325 22.5 36 23.175 36 24V39Z" fill="#902768"/>
<path d="M6.53851 28.4208C6.53851 28.0248 6.85051 27.5928 7.35301 27.5928H10.1235C11.6835 27.5928 13.0875 28.6368 13.0875 30.6378C13.0875 32.5338 11.6835 33.5898 10.1235 33.5898H8.12101V35.1738C8.12101 35.7018 7.78501 36.0003 7.35301 36.0003C6.95701 36.0003 6.53851 35.7018 6.53851 35.1738V28.4208ZM8.12101 29.1033V32.0913H10.1235C10.9275 32.0913 11.5635 31.3818 11.5635 30.6378C11.5635 29.7993 10.9275 29.1033 10.1235 29.1033H8.12101Z" fill="white"/>
<path d="M15.4365 36.0002C15.0405 36.0002 14.6085 35.7842 14.6085 35.2577V28.4447C14.6085 28.0142 15.0405 27.7007 15.4365 27.7007H18.183C23.664 27.7007 23.544 36.0002 18.291 36.0002H15.4365ZM16.1925 29.1647V34.5377H18.183C21.4215 34.5377 21.5655 29.1647 18.183 29.1647H16.1925Z" fill="white"/>
<path d="M25.488 29.2607V31.1672H28.5465C28.9785 31.1672 29.4105 31.5992 29.4105 32.0177C29.4105 32.4137 28.9785 32.7377 28.5465 32.7377H25.488V35.2562C25.488 35.6762 25.1895 35.9987 24.7695 35.9987C24.2415 35.9987 23.919 35.6762 23.919 35.2562V28.4432C23.919 28.0127 24.243 27.6992 24.7695 27.6992H28.98C29.508 27.6992 29.82 28.0127 29.82 28.4432C29.82 28.8272 29.508 29.2592 28.98 29.2592H25.488V29.2607Z" fill="white"/>
<path d="M34.5 40.5H6V42H34.5C35.325 42 36 41.325 36 40.5V39C36 39.825 35.325 40.5 34.5 40.5Z" fill="white"/>
</svg>
